<?xml version="1.0" encoding="utf-8"?>
<!-- Generator: Adobe Illustrator 26.5.0, SVG Export Plug-In . SVG Version: 6.00 Build 0)  -->
<svg version="1.1" id="Calque_1" xmlns="http://www.w3.org/2000/svg" xmlns:xlink="http://www.w3.org/1999/xlink" x="0px" y="0px"
	 viewBox="0 0 695 664" style="enable-background:new 0 0 695 664;" xml:space="preserve">
<style type="text/css">
	.st0{fill:#F4F754;}
	.st1{fill:#F8FC09;}
</style>
<path class="st0" d="M487.7,661.8c-1.4-1-1.6-3.8-0.2-5c0.5-0.4,5.6-3.2,11.4-6.1c5.8-2.9,10.6-5.6,10.8-6.1
	c0.3-0.9-5.3-12.4-6.3-12.8c-0.7-0.3-4.3,1.5-15.9,7.5c-3.8,1.9-6.8,3.2-7.8,3.2c-2.9,0-4.4-3.1-2.4-5c0.5-0.5,4-2.5,7.9-4.4
	c3.8-1.9,7.3-3.8,7.6-4.2c0.6-0.5,0-2.1-3.5-9.1c-2.3-4.6-4.6-8.9-5.1-9.4c-0.9-0.9-1.2-0.8-8.9,3c-4.4,2.1-8.3,3.9-8.7,3.9
	c-2.6,0-4-3.6-2.1-5.3c1.6-1.4,27.4-14.4,28.4-14.2c0.9,0.2,5,7.1,8.1,13.7c1,2.1,5.4,10.7,9.8,19.2c4.4,8.5,8,15.8,8,16.4
	c0,1.5-1.2,2.3-8,5.7c-3.4,1.7-9.2,4.6-12.8,6.5c-3.6,1.9-7.1,3.4-7.7,3.4C489.3,662.6,488.3,662.2,487.7,661.8L487.7,661.8z
	 M159.5,656.4c-0.6-0.2-4.2-2.5-8-5.1c-3.8-2.6-10.3-7-14.4-9.8c-4.1-2.8-8.5-6-9.7-7.1c-2.1-1.8-2.2-2.1-1.9-3.8
	c0.5-2.4,6.4-10.9,8.2-11.7c1.1-0.5,1.8-0.6,3.2-0.1c3.3,1.1,3.8,4.4,1.2,8c-0.9,1.2-1.5,2.5-1.3,2.8c0.3,0.6,19.4,13.9,21.2,14.9
	c0.9,0.5,1.3,0.4,2.1-0.6c1.9-2.1,8.9-12.6,8.9-13.4c0-0.4-1.2-1.7-2.6-2.9c-2-1.7-2.6-2.5-2.6-3.7c0-1.5,2.4-5.3,10.8-17.5
	c1.5-2.1,3.7-5.3,4.9-7.1c1.2-1.8,2.3-3.5,2.3-3.9c0-0.3-0.6-1-1.4-1.5c-0.8-0.5-3.9-2.6-6.8-4.7c-3-2.1-5.8-3.9-6.2-3.9
	c-0.4,0-1.8,1.3-3,2.8c-2.6,3.4-4.4,3.8-6.9,1.3c-2.3-2.3-2-3.7,2-9.6c4-5.9,4.7-6.4,6.7-5.6c1.2,0.4,25.5,16.8,31.5,21.2
	c2.5,1.8,3.3,3.3,2.8,4.8c-0.3,0.7-2.9,4.7-5.8,9c-6.5,9.3-17.3,25-24.5,35.6C162.1,656.6,161.6,657.2,159.5,656.4L159.5,656.4z
	 M531.2,632.6c-1.8-2.4-5-6.7-7.1-9.6c-5.4-7.5-7.5-10.4-15-20.8c-3.6-5-6.6-9.6-6.6-10.1c0-1.1,2.4-3,17.8-14.1
	c4.5-3.3,8.6-6.1,9.1-6.3c1.4-0.5,2.8,1.1,10,11c3.6,5,8.9,12.2,11.8,16.1c10.4,14.2,11.6,16,11.6,17.7c0,1.8-1.5,3.2-3.4,3.2
	c-1.2,0-1.8-0.8-9.9-12c-1.6-2.2-3.1-4-3.4-4.2c-0.3-0.1-1.4,0.3-2.4,1c-3,2-3.8,2.1-5.3,0.5c-0.7-0.8-4.1-5.3-7.5-10
	c-7.1-9.8-7.5-10.3-8.1-10.3c-0.2,0-2.7,1.7-5.5,3.8c-3.3,2.4-5.2,4.2-5.3,4.8c-0.1,0.7,1.5,3.2,4.6,7.5c2.6,3.5,7.3,10,10.5,14.3
	c3.1,4.3,7.1,9.8,8.9,12.2c3.7,5,4.1,5.8,3.2,7.8c-0.5,1.1-1.1,1.5-2.6,1.6C534.6,636.9,534.4,636.7,531.2,632.6L531.2,632.6z
	 M114.7,604.4c-2.3-1.5-21.9-21.4-21.9-22.3c0-0.4,0.5-1.4,1.1-2.2c2.1-2.7,3-2.1,13,7.4c5.1,4.9,9.6,8.8,10.1,8.8
	c1.2,0,9.9-8.9,9.9-10.1c0-0.5-3.7-4.5-8.8-9.4c-8.3-8-8.8-8.6-8.8-10.4c0-2.3,1.8-3.8,3.7-3.2c0.7,0.2,3.9,3,7.2,6.2
	c3.3,3.2,6.4,5.9,6.9,5.9c0.8,0,13.3-12.4,14.4-14.3c0.3-0.6-1.2-2.4-5.8-7.1c-5.6-5.6-6.2-6.5-6.2-8.1c0-2.2,0.8-3,2.8-3
	c1.3,0,3.1,1.6,12.3,10.7c5.9,5.9,11,11.1,11.2,11.5c0.3,0.6,0.1,1.4-1.1,2.8c-2.2,2.8-35.5,36.4-36.8,37.2
	C116.5,605.5,116.5,605.6,114.7,604.4z M558.7,584.6c-10.7-10.4-19.4-19.2-19.5-19.8c-0.1-0.8,3.3-4.6,13.4-15
	c7.5-7.7,14.1-14.1,14.7-14.2c0.6-0.2,1.5-0.1,2.1,0c0.5,0.2,9.5,8.7,20,19c18.2,17.9,19,18.8,18.6,20.1c-0.3,0.7-6.5,7.5-13.8,15
	c-10.8,11.1-13.6,13.7-14.7,13.7C578.3,603.3,574.2,599.7,558.7,584.6L558.7,584.6z M589.8,584.4c5.3-5.5,9.5-10.2,9.4-10.6
	c-0.2-1-29.5-29.7-30.3-29.7c-1,0-5.2,4.2-5.2,5.3c0,0.6,0.7,1.8,1.5,2.8c0.9,1,1.5,2.1,1.5,2.5c0,0.4-3,3.8-6.7,7.6
	c-3.7,3.8-6.7,7.2-6.7,7.7c0,0.8,18.6,19.7,23.1,23.3c1.4,1.2,2.5,1.7,2.9,1.5C579.9,594.5,584.6,589.9,589.8,584.4L589.8,584.4z
	 M76.7,564.8c-2.2-2.5-18.4-25.6-18.4-26.3c0-0.9,1.7-2.4,8.8-7.4c4.1-2.9,7.5-5.7,7.6-6.2c0.1-0.5-0.3-1.5-0.9-2.3
	c-1.4-2-1.3-3.2,0.3-4.8c3.3-3.1,24-17.4,25.2-17.4c1.6,0,3.3,1.7,3.3,3.3c0,1.8-0.7,2.4-17.2,14c-2,1.4-3.7,3-3.8,3.5
	c-0.2,1.2,11.1,17.4,12.2,17.4c0.2,0,5-3.3,10.7-7.4c5.7-4.1,10.7-7.5,11.2-7.7c0.5-0.2,1.4,0.1,2.1,0.7c1.3,1,5.6,6.8,6.1,8.2
	c0.6,1.8-0.4,2.7-23,18.8c-6.8,4.9-14.1,10.1-16.2,11.7C80.4,565.9,78.2,566.5,76.7,564.8z M86.8,553c3.5-2.5,5-3.9,5-4.6
	c0-0.9-9.5-14.5-11.6-16.7c-0.6-0.6-0.9-0.6-1.7,0c-0.5,0.4-3.1,2.2-5.7,4.1c-3.3,2.3-4.7,3.6-4.5,4.2c0.1,0.5,2.8,4.5,6,8.9
	c4.1,5.7,6.1,8,6.6,7.9C81.4,556.7,84,555,86.8,553z M622.3,549.6c-8.4-6.3-13.8-10.1-14.3-10.1c-0.4,0-1.4,1-2.3,2.3
	c-0.9,1.3-2,2.3-2.4,2.3c-0.8,0-7.5-4.6-15.7-10.8c-2.1-1.6-5.5-4.1-7.6-5.6c-4.9-3.6-4.9-3.8-0.9-9.2c3.3-4.4,4.1-4.9,6.1-4
	c0.8,0.4,8,5.5,16,11.3c7.9,5.9,17.3,12.7,20.7,15.3c5.9,4.4,6.3,4.7,6.3,6.4C628.2,550.6,625.1,551.7,622.3,549.6L622.3,549.6z
	 M635.9,530.1c-1.4-1.4-1.1-2.8,1.8-7.9c1.3-2.3,2.4-4.4,2.4-4.7c0-0.9-11-7.4-12.5-7.4c-0.5,0-1.3,0.9-1.8,2c-1.9,3.7-3,3.9-7,1.1
	c-1.1-0.8-4.1-2.5-6.7-3.8c-8.9-4.6-18-10.3-18.2-11.4c-0.2-1.6,5.1-10.3,6.4-10.5c1.3-0.2,4.2,1.2,14.8,7.4
	c20.8,12,27.7,15.8,28.5,15.6c0.5-0.1,1.9-2,3.3-4.3c2.4-4.1,4.1-5.9,5.4-5.9c1.1,0,3.3,2.4,3.3,3.5c0,0.9-2.6,5.8-9.8,18.4
	c-1.9,3.4-3.9,6.8-4.3,7.6C640.4,531.6,637.6,531.8,635.9,530.1L635.9,530.1z M42.4,512.8c-1.6-2.3-14-28-14-29
	c0-1.2,1.7-2.4,6.5-4.5c4.2-1.9,4.7-2,6.3-0.8c0.9,0.6,1.1,1.2,1,2.7c-0.1,1.6-0.5,2-2.3,3.1c-1.4,0.8-2.2,1.6-2.2,2.2
	c0,0.5,2,5,4.5,10c3.3,6.6,4.7,9,5.4,9c1.3,0,12.2-5.6,12.2-6.2c0-0.3-0.4-1.7-0.9-3c-0.5-1.3-0.7-2.8-0.6-3.2
	c0.2-0.4,5.5-3.4,11.9-6.5c6.4-3.1,11.8-6,11.9-6.5c0.4-1.1-5.4-12.7-6.3-12.7c-0.4,0-1.6,0.3-2.6,0.8c-2.5,1.1-3.4,1-4.8-0.5
	c-1.9-2-1.3-3.9,1.8-5.6c4.4-2.4,7.9-3.6,9-3c0.5,0.3,1.8,2.3,2.9,4.5c1,2.2,4,8.4,6.6,13.8c2.6,5.4,4.9,10.3,5.1,10.8
	c0.7,2.1,1.5,1.7-30.5,17.2c-9.5,4.6-17.8,8.5-18.6,8.6C43.8,514.2,43.3,514,42.4,512.8z M659.7,487.2c-1-0.4-4.7-1.8-8.2-3.3
	c-3.5-1.4-7-2.8-7.7-3c-0.7-0.2-5.7-2.1-11.1-4.3c-5.4-2.1-12-4.6-14.6-5.6c-6.2-2.2-7.3-2.9-7.3-4.8c0-2,2.2-3.8,4.1-3.4
	c0.7,0.2,5.8,2.1,11.2,4.2c5.4,2.1,10.3,3.8,10.8,3.7c0.6-0.1,1.6-1.9,3.1-6.1c1.2-3.3,2.2-6.2,2.2-6.6c0-1.1-2-2-11.4-5.5
	c-10.7-3.9-12.3-4.7-12.3-5.9c0-1,2-7.1,3.1-9.5c1.1-2.3,2.4-2.2,9.1,0.4c3.4,1.3,10.9,4.2,16.7,6.4c18.9,7.2,26.2,10.1,27,10.8
	c1.6,1.3,1.4,2-7.3,24.5c-1.5,4-3,7.5-3.3,7.9C663,488.1,662,488.1,659.7,487.2L659.7,487.2z M662.1,471.9c4-9.9,4.7-12.1,4.3-12.8
	c-0.5-0.8-11.8-5.3-12.8-5.1c-0.9,0.2-8.5,18.6-8.1,19.7c0.3,0.9,11.4,5.5,12.8,5.3C659.1,478.9,660,477.2,662.1,471.9L662.1,471.9z
	 M20.2,462.7c-0.9-1.7-0.6-3.6,0.6-4.4c1.1-0.7,8.7-3.2,16-5.2l3-0.8l-0.4-2.1c-0.2-1.2-0.4-2.8-0.4-3.7c-0.1-1.7-2-1,16.2-6.6
	c4.7-1.4,8.8-2.9,9.2-3.3c0.6-0.5,0.3-2.1-1.9-9.9c-1.5-5.1-2.6-9.5-2.6-9.8c0-1,2-2.7,3.3-2.7c0.7,0,1.6,0.4,2,0.9
	c0.4,0.5,2,4.7,3.4,9.4c1.4,4.7,3.1,9.8,3.6,11.5c1.9,5.5,3.2,10.5,2.8,11.4c-0.4,1.2-2.6,2-13,5c-4.9,1.4-12.8,3.8-17.5,5.3
	C26.1,463.7,21.2,464.7,20.2,462.7L20.2,462.7z M673.8,433c-7.8-1.4-12.9-2.3-18.6-3.6c-3.1-0.7-10.1-1.9-15.5-2.8
	c-5.4-0.9-10.3-1.8-11-2.1c-1.8-0.7-2.5-2.7-1.5-4.3c0.7-1.1,1.3-1.3,3.1-1.3c2.7,0,18.8,2.7,33.3,5.7c12.8,2.6,12.6,2.6,13.3,0.1
	c0.6-2.4,2.2-12.6,2-12.8c-0.5-0.5-13.7-3-29-5.6c-9.3-1.6-17.4-3.2-18.1-3.6c-1.6-1.1-2-2.6-1-4.2c1-1.6,2.7-1.6,10.4-0.2
	c3.1,0.6,7.8,1.4,10.5,1.8c2.7,0.4,10.2,1.7,16.7,2.9c8.6,1.6,11.9,2,12.1,1.5c0.2-0.3,0.9-3.4,1.5-6.9c1.1-6.2,1.1-6.3,0.2-7.1
	c-1.1-0.9-12-2.9-13.2-2.4c-0.4,0.2-0.9,1.2-1.1,2.3c-0.5,2.6-1.6,4.3-2.9,4.3c-1,0-29.2-5.4-31-6c-1.5-0.5-1.6-2.5-0.3-7.8
	c1.5-6.1,1-6,11.7-3.8c7.4,1.5,13.3,2.6,31.8,5.7c12.1,2.1,13.1,2.3,13.4,3.8c0.3,1.2-3.2,22.1-5.9,35.9c-2.4,12.1-2,11.1-4.7,11.2
	C679,433.7,676.1,433.4,673.8,433L673.8,433z M7.4,413.5c-0.6-0.7-4.7-27.4-4.7-30.5c0-2.1,0.8-2.9,3.2-2.9c1.5,0,2.1,0.3,2.7,1.2
	c0.4,0.6,1.2,5,1.8,9.7c1.9,14.4,2,15.2,2.9,15.8c0.8,0.6,7.7-0.2,12.3-1.4c1.8-0.5,1.9-0.6,1.9-2.7c0-1.2-0.6-6.8-1.3-12.4
	c-0.7-5.6-1.3-10.7-1.3-11.2c0-2.3,3.7-3.4,5.3-1.6c0.5,0.6,1.2,3.9,2,9.3c1.3,9.3,1.7,10.2,4.3,9.6c0.9-0.2,5.3-0.9,9.8-1.6
	c4.5-0.7,8.4-1.5,8.6-1.7c0.3-0.3,0.1-2.8-1.4-15.7c-0.3-2.5-0.2-3.1,0.6-4c1.1-1.2,2.7-1.3,4.1-0.3c0.7,0.5,1.3,3,2.6,12
	c0.9,6.2,2,13.1,2.5,15.3c1.1,5.7,0.7,6-6.6,6.9c-2.7,0.3-14.1,2-33.8,5.1C9.8,414.4,8.2,414.5,7.4,413.5L7.4,413.5z M637.7,364.8
	c-2.2-0.9-2.8-3.5-1.3-5.1c0.9-0.9,2.2-1,14.2-1.4l13.2-0.4l0.3-1.3c0.5-1.8,0-19.4-0.6-20.2c-0.4-0.6-2.7-0.6-13.4-0.3
	c-10.8,0.3-13.1,0.2-13.9-0.4c-0.8-0.6-1-1.6-1.2-6.1c-0.3-7-0.2-7.1,6-7.1c2.5,0,14.8-0.2,27.5-0.3c17-0.2,23.1-0.2,23.3,0.3
	c0.2,0.3,0.5,8,0.7,17l0.3,16.4l-1.2,0.7c-0.8,0.5-4.3,0.8-11,1l-9.8,0.3l-0.3,2.8c-0.2,2.4-0.5,2.9-1.5,3.4
	C667.3,364.8,639.3,365.4,637.7,364.8z M685.4,349.6c0.6-0.6,0.6-2.5,0.3-10.9l-0.5-10.2l-7.2-0.1c-5.4-0.1-7.3,0-7.6,0.5
	c-0.6,1,0.1,20.6,0.8,21.5C672,351.2,684.3,350.6,685.4,349.6L685.4,349.6z M45.9,333.8c-5-0.5-16-1.7-24.5-2.6
	c-17-1.8-19.1-2.1-19.8-3.5c-0.5-0.9,2.7-32,3.3-33.1c0.5-0.8,4.7-0.5,22.3,1.3c9.3,1,20.3,2,24.5,2.4c5.7,0.5,7.9,0.9,8.7,1.5
	l1.1,0.9l-1.4,13.6c-0.8,7.5-1.5,14.7-1.7,16.1c-0.3,2.5-1.6,4.5-2.9,4.4C55.2,334.8,50.9,334.3,45.9,333.8L45.9,333.8z M23.4,324.3
	c0.4-0.4,0.9-1.9,1.1-3.3c0.2-1.4,0.7-2.8,1.1-3.2c0.8-0.7,7.9-0.2,20.3,1.4c5.8,0.7,6.9,0.7,7.3,0.2c0.4-0.6,0.9-6,1.2-11.8
	l0.1-2.3l-2.8-0.4c-1.6-0.2-11.1-1.3-21.1-2.4C17,301,12,300.6,11.6,301c-0.3,0.3-1.1,5.2-1.7,10.8c-0.9,8.7-1,10.4-0.4,11
	c0.6,0.6,5.4,1.4,12.6,2.1C22.4,325,23,324.7,23.4,324.3L23.4,324.3z M633.1,310c-0.6-1.5-4.7-24-5.3-29.4c-0.1-1.1,0-2.2,0.3-2.5
	c0.6-0.6,32.3-7,44.9-9c6.6-1.1,9.1-1.3,9.8-0.9c0.9,0.6,1.2,1.7,3.5,12.5c2,9.5,3.4,18.6,3,19.7c-0.5,1.5-1.4,1.8-11.1,3.5
	c-5,0.9-16.4,3-25.5,4.7c-9.1,1.7-17,3-17.7,3C634.2,311.7,633.6,311.2,633.1,310L633.1,310z M649.1,302.6c4.8-1,12.3-2.5,16.6-3.3
	c4.3-0.8,8.1-1.6,8.4-1.8c0.4-0.2,0.6-1.4,0.4-3.3l-0.2-2.9l2.6-0.9c3.1-1,3.2-1.3,2.1-8c-1.2-7.5-1.2-7.3-2.6-7.3
	c-2.7,0-40.7,7.2-41.3,7.8c-0.5,0.5-0.3,2.6,1.3,10.6c1.8,9,2.4,10.9,3.7,10.9C640.2,304.5,644.3,303.6,649.1,302.6z M56.8,287.4
	c-2.1-0.6-9.2-2.5-15.8-4.3c-6.6-1.8-15.9-4.3-20.8-5.6c-4.9-1.3-9.5-2.7-10.1-3.1c-1.6-1-1.5-2.2,0.3-8.1c0.8-2.7,2.3-8,3.4-11.8
	c3.4-12.5,3.2-12.1,4.6-12.7c1.9-0.9,4.9,0.6,4.9,2.4c0,0.5-1.4,6.2-3.1,12.9c-1.7,6.6-2.9,12.2-2.7,12.5c0.2,0.2,3.3,1.3,6.8,2.3
	c4.9,1.4,6.5,1.7,7.1,1.3c0.9-0.7,1.7-3.4,4.4-14.4c1.1-4.7,2.4-9,2.8-9.7c1.4-2.2,4.6-2,5.9,0.4c0.4,0.8,0,2.8-1.8,9.4
	c-1.5,5.4-2.2,8.6-1.9,9.1c0.4,0.7,14.6,4.8,18.8,5.5l1.9,0.3l0.8-2.8c0.4-1.5,1.4-5.3,2.1-8.4c0.7-3.1,1.7-6.1,2.2-6.6
	c1.1-1.2,3.9-1.2,5,0.1c1.1,1.2,1.4-0.4-3.5,18.2c-1.9,7-3.7,13.1-4,13.5C63.1,288.7,61.4,288.6,56.8,287.4L56.8,287.4z
	 M651.8,259.3c-0.5-0.5-2.1-4.4-3.5-8.7c-1.4-4.3-2.9-8.1-3.3-8.4c-0.7-0.6-3.3,0.1-14.2,4.1c-12.7,4.6-11.9,4.5-13.2,2
	c-1.4-2.7-3.7-9.5-3.5-10.2c0.4-1,5.8-3.3,14.1-5.9c4.1-1.3,10.5-3.5,14.3-5c9.6-3.6,22.3-7.7,23.8-7.7c0.7,0,1.5,0.3,1.8,0.6
	c0.3,0.4,1.6,3.8,2.8,7.6c1.3,3.8,3.5,10.2,5,14.1c3,8,3,9.2,0.5,10.3c-2,0.8-3.3,0.5-4.3-1c-0.4-0.6-2.3-6-4.3-11.9
	c-2-5.9-3.9-11.1-4.4-11.5c-0.7-0.7-1-0.7-3,0.1c-8.8,3.2-11.2,4.2-11.2,4.6c0,0.3,1.7,5.7,3.9,12c2.1,6.4,3.9,12.1,3.9,12.8
	C657.1,259.8,653.6,261.1,651.8,259.3L651.8,259.3z M68.9,242.9c-7.3-3.1-9.4-4.3-10.1-5.5c-0.8-1.4-0.2-3.4,1.2-4.3
	c1.4-0.9,3-0.5,8.4,2.2c1.7,0.9,3.4,1.4,3.7,1.2c0.7-0.4,5.8-11.5,5.8-12.6c0-0.4-0.5-1-1.2-1.3c-11.7-5.6-17.1-7.8-17.7-7.3
	c-0.4,0.3-1.4,2.2-2.2,4.3c-0.8,2-2.6,6-3.9,8.7c-2.8,6.1-2.7,6-10.6,2.7c-10.7-4.6-17.3-8.1-17.5-9.3c-0.1-1,3.8-11,5.3-13.3
	c0.4-0.6,2.1-4.5,3.9-8.6c1.7-4.1,3.4-7.8,3.7-8.1c0.9-1.1,3.3-0.8,7.5,1c5.2,2.1,5.3,2.3,5.1,4.8c-0.1,1.7-0.4,2.2-1.5,2.8
	c-1.2,0.6-1.7,0.5-3.5-0.2c-1.2-0.5-2.4-0.7-2.8-0.6c-0.4,0.1-1.7,2.5-2.9,5.3c-1.2,2.8-3.1,7.1-4.3,9.6c-1.7,3.8-2,4.7-1.4,5.3
	c0.8,0.7,11.3,5.4,12.3,5.4c0.6,0,5.4-9.7,8.7-17.8c2.5-6,3.4-7.4,4.6-7.4c2.5,0,28.2,11.8,29.6,13.6c1.1,1.4,1.6-0.1-5,14.8
	c-6.7,15.3-7.7,17.1-9.8,17C74.3,245.2,71.7,244.2,68.9,242.9z M609.3,225.8c-2.2-1.6-1.3-4.8,1.8-6.3c1.1-0.5,4.3-2.3,7.1-3.9
	c2.9-1.6,5.4-2.9,5.5-2.9c0.2,0,2.4-1.2,5.1-2.7c2.6-1.5,8.4-4.5,12.7-6.8c4.4-2.3,8.2-4.6,8.5-5c0.6-0.9,0.7-0.8-6-12.9
	c-2-3.6-3.8-6.6-4.1-6.6c-1.2,0-12.2,6.4-12.2,7.1c0,0.4,0.5,1.9,1.1,3.3c1.4,3.3,1.6,3.1-7.6,8c-16.1,8.6-20.6,10.7-21.7,10
	c-1.3-0.7-5.8-8.7-5.8-10.3c0-1.3,0.4-1.6,7.7-5.4c13.5-7,22.3-11.7,22.9-12.2c0.3-0.3,3.4-1.9,6.8-3.6c3.4-1.7,7.2-3.7,8.5-4.4
	c2.7-1.5,3.7-1.6,4.7-0.4c0.9,1.1,4.2,7,8.4,15.1c1.8,3.5,4.2,7.8,5.2,9.5c3,5,2.7,5.5-4.8,9.3c-2.1,1.1-6.5,3.4-9.8,5.1
	c-25.6,13.9-31,16.7-32.2,16.8C610.7,226.6,609.9,226.3,609.3,225.8z M580.9,179.6c-2-2.6-3.8-5.3-4.1-5.9c-1.4-2.7-0.4-3.9,7.9-9.8
	c2.8-2,8.2-5.9,11.9-8.6c3.7-2.7,8.6-6.2,10.8-7.8c2.3-1.6,6.4-4.6,9.3-6.7c2.8-2.1,7.1-5.2,9.4-6.9c5.4-3.9,6.7-4.3,8.8-2.2
	c2.2,2.2,2.1,4.3-0.1,6.5c-0.9,0.9-4.1,3.4-7.1,5.5c-10.3,7.4-11.3,8.2-11.3,8.8c0,0.3,0.8,1.7,1.8,3c1,1.4,1.8,2.9,1.8,3.5
	c0,0.6-0.9,1.8-2.1,2.8c-1.8,1.6-13.9,10.4-22,16.1c-1.6,1.1-4.3,3-6,4.3c-1.7,1.2-3.6,2.2-4.2,2.2
	C584.8,184.4,583.6,183.2,580.9,179.6L580.9,179.6z M96.4,170.2c-6.3-5.3-13.9-11.6-16.9-14c-12.4-10.3-19-15.7-21.3-17.6
	c-3.6-3.1-3.5-3.5,3.8-12.3c3.4-4.1,7.5-9.1,9.1-11.1c1.6-2,4.5-5.4,6.5-7.6c3.2-3.6,3.7-4,5.4-4c1,0,2.4,0.3,3,0.8
	c1.3,0.9,1.9,3.6,1.1,5.1c-0.5,1-10.6,13.4-17.3,21.4c-1.8,2.2-2.6,3.5-2.3,4c0.7,1.3,12.8,11.1,13.6,11.1c0.5,0,2.8-2.4,5.4-5.5
	c11.1-13.5,15.8-18.8,16.8-19.2c2.5-0.9,6.3,2.5,5.6,5.1c-0.1,0.5-3.4,4.7-7.2,9.4c-3.8,4.6-6.9,8.8-6.9,9.3c0,0.5,0.9,1.5,1.9,2.3
	c1.8,1.4,7.5,6.1,14.2,11.7c1.8,1.5,3.4,2.4,4,2.3c0.6-0.1,4.1-3.9,7.9-8.4c6.9-8.2,6.9-8.2,9.2-8.4c2.8-0.2,4.1,1,4.2,3.7
	c0.1,1.9,0.1,1.8-11.1,15.3c-13.7,16.5-13.7,16.5-15.5,16.5C108.1,179.8,106.2,178.4,96.4,170.2z M546.3,138.7
	c-0.6-0.7-1.1-1.6-1.1-1.9c0-1.1,1.5-2.9,18.7-22.6c7.6-8.7,12.2-14.2,12.2-14.8c0-0.2-2.4-2.5-5.3-5c-2.9-2.5-6.5-5.6-8-7
	c-1.5-1.4-3-2.3-3.4-2.2c-0.9,0.4-9.1,9.9-9.1,10.6c0,0.3,0.9,1.4,2.1,2.4c1.1,1,2.1,2.3,2.1,2.7c0,0.5-1.8,2.9-4,5.4
	c-2.2,2.5-6.7,7.8-10.1,11.7c-3.4,3.9-6.7,7.3-7.3,7.6c-1,0.5-1.5,0.3-3.2-0.8c-3.4-2.4-6.8-5.9-6.8-7c0-1.1,1.7-3.3,10.8-13.7
	c2.7-3.1,9.2-10.6,14.5-16.8c8.8-10.1,10.4-11.8,11.8-11.8c0.4,0,5.7,4.4,16,13.3c6.8,5.9,9.3,8.5,9.3,9.6c0,0.6-1.5,2.7-3.5,5
	c-1.9,2.1-6.1,7-9.4,10.7c-3.3,3.8-7.7,8.9-9.8,11.3c-2.1,2.5-5.8,6.7-8.2,9.5C549.7,140.7,548.4,141.3,546.3,138.7z M150.7,129.6
	c-1.4-1.5-4.7-5.2-7.4-8.3c-2.7-3.1-6.1-6.9-7.5-8.5c-1.4-1.6-5.2-5.9-8.4-9.7c-3.5-4.1-6.2-6.8-6.8-6.8c-0.5,0-2.7,1.5-4.8,3.3
	c-4.3,3.7-6.3,4.3-7.8,2.2c-1.9-2.7-1.4-3.3,15.1-17.6c5.8-5,7.2-6,8.6-6c1.2,0,2,0.4,2.5,1.1c1.5,2.1,1,3.1-3.7,7.4
	c-4.2,3.9-4.5,4.2-3.7,5.2c1.6,2.2,7.8,9.2,8.6,9.6c0.5,0.3,1.5,0,3.1-1.2c1.3-0.9,2.7-1.6,3.2-1.6c0.6,0,4.6,4.2,10.7,11.2
	c10.9,12.5,11.5,13.3,11.2,14.6c-0.4,1.4-7.9,7.7-9.2,7.7C153.7,132.3,152.3,131.3,150.7,129.6z M171.8,107.1
	c-2.2-3.5-6.4-9.9-9.2-14.2c-2.8-4.4-6.2-9.6-7.5-11.6c-1.3-2-3.7-5.8-5.3-8.3c-3.4-5.4-3.8-7.5-1.7-8.9c2.2-1.5,3.4-0.4,9.1,8.3
	c3.2,4.8,5.5,8,6,8c0.5,0,1.6-0.5,2.5-1c2.2-1.3,3.3-1.3,4.6,0.1c0.6,0.6,3.9,5.6,7.4,11.1c3.6,5.6,6.6,9.9,7.1,9.9
	c0.4,0,3.2-1.6,6.1-3.5c3.9-2.5,5.4-3.8,5.4-4.5c0-0.6-2.4-4.7-5.3-9.2c-15.8-24.3-20-31-20-32.5c0-1.7,1.9-3,3.9-2.8
	c1.2,0.1,2.4,1.7,8.6,11.2c14.1,21.9,21.3,33.2,21.7,34.2c0.2,0.5,0.2,1.4-0.1,1.9c-0.7,1.3-26.2,17.7-27.9,18
	C176,113.4,175.5,112.9,171.8,107.1z M508.6,109c-19-11.6-23.7-14.7-24-15.6c-0.4-1,0.4-2.7,3.4-7.4c1.4-2.1,4.7-7.6,7.5-12.1
	c2.8-4.5,6.4-10.3,8-12.9c1.6-2.6,4.2-6.7,5.8-9.2c1.5-2.5,3.4-5.1,4.1-5.6l1.4-1l7.1,4.3c12.4,7.5,18.9,11.8,19.6,12.8
	c0.9,1.3,0.3,4-1.1,4.7c-2.1,1.1-4,0.2-18.4-9c-3-1.9-5.7-3.4-6.2-3.3c-0.4,0.1-2.4,2.8-4.3,6c-2.9,4.8-3.4,5.9-2.9,6.6
	c0.4,0.4,2.8,2,5.3,3.5c5.2,3.1,12.7,7.9,14.9,9.6c1,0.8,1.4,1.6,1.4,2.8c0,2.1-0.8,2.9-3,2.9c-1.8,0-4.7-1.5-11.8-6.3
	c-2-1.4-4-2.5-4.4-2.5c-1.3,0-11.3,16-11.1,17.6c0.1,0.7,2.2,2.3,6.3,4.8c8.2,4.9,9.2,5.9,8.8,8.1c-0.3,1.8-1.5,3-2.9,3
	C511.8,110.7,510.2,109.9,508.6,109L508.6,109z M214.1,88.9c-0.3-0.4-1-1.9-1.7-3.5s-2.1-4.7-3.1-7c-1.1-2.3-3.1-7-4.6-10.6
	c-1.5-3.5-3.4-7.9-4.3-9.8c-3.4-7.1-7.6-17.7-7.6-19.1c0-1.8,0.7-2.3,8.2-5.4c3.3-1.3,8.6-3.7,11.9-5.2c8-3.7,9.9-4.4,11-3.7
	c1.2,0.7,2.2,2.8,18.1,39.4c2.4,5.6,4.4,10.5,4.4,11c0,0.9-1.5,2.6-2.2,2.6c-0.2,0-1.8,0.7-3.6,1.6c-1.8,0.9-6,2.7-9.4,4.2
	c-9.6,4-10.7,4.5-12.3,5.3C217.1,89.7,214.7,89.8,214.1,88.9z M233.6,75.2c2.5-1.2,4.6-2.4,4.8-2.6c0.1-0.2-1-3.4-2.6-7
	c-1.6-3.6-3.5-8-4.2-9.7c-0.7-1.7-2.2-5.1-3.4-7.5c-1.1-2.4-2.7-6.1-3.6-8.2c-2.1-5.2-2.9-6.8-3.7-6.8c-0.7,0-12.3,4.7-17.2,7
	c-1.5,0.7-2.7,1.6-2.7,2c0,0.9,4.5,11.6,5.2,12.3c0.3,0.3,1.5,0.1,3.4-0.5c2-0.7,3.1-0.8,3.7-0.5c0.5,0.3,3.2,5.8,6,12.2
	c2.9,6.4,5.5,11.9,5.9,12.2C226.1,78.7,227,78.4,233.6,75.2L233.6,75.2z M441.4,75.3c-14.6-4.5-23.4-7.5-24.4-8.2
	c-1-0.7-1.2-1.2-0.9-2.5c0.7-3.5,4.5-14.8,5.3-15.5c0.9-0.9,3.9-1.1,4.7-0.2c0.9,0.9,0.8,3-0.4,7.2c-1.7,6.1-1.9,5.7,5.2,8
	c3.4,1.1,6.5,2,7,1.8c0.7-0.3,5.4-14,6.2-18.1c0.4-1.9,1-1.6-8.8-4.7c-3.7-1.2-7.6-2.5-8.7-3c-1.9-0.8-2-0.9-1.7-2.9
	c0.3-2.1,3.3-12,5.9-19.6c1.4-4,1.5-4.1,3.1-4.3c1.7-0.2,8.3,1.6,17.9,4.8c2.8,0.9,6.9,2.2,9,2.9c4.5,1.3,5.2,1.7,5.2,3.5
	c0,1.9-2.5,9.8-3.4,10.7c-1.1,1.1-3.5,1-4.5-0.2c-0.7-0.7-0.8-1.7-0.7-4.2c0.1-3.1,0.1-3.2-1.1-3.6c-0.7-0.2-5.1-1.6-9.9-3.1
	c-4.7-1.5-8.9-2.6-9.3-2.4c-0.8,0.3-4.2,11.7-3.9,13.1c0.1,0.8,10.3,4.4,22.1,8c3.7,1.1,3.9,1.2,4,2.9c0.1,0.9-0.4,3.4-1.1,5.5
	c-0.7,2.1-2.5,7.9-3.9,13c-1.4,5.1-3,9.9-3.5,10.8C449.3,76.9,447,77,441.4,75.3L441.4,75.3z M260,72.2c-0.3-0.2-0.8-0.8-1.1-1.4
	c-0.8-1.5-4.8-14.9-8.1-26.8c-1.6-5.7-3.8-13.3-4.9-16.9c-1.2-3.6-2.1-7-2.1-7.6c0-1.1,2.3-3.1,3.6-3.1c1.6,0,2.4,1.7,5.1,10.6
	c1.5,4.8,3,9.1,3.4,9.5c0.6,0.6,1,0.6,3.1-0.1c1.3-0.4,2.7-0.7,3.1-0.5c1,0.4,1.9,3,4.4,12.1c1.2,4.4,2.8,10,3.6,12.6
	c2,6.4,2.1,7.2,1.4,8.2c-0.3,0.5-2.8,1.5-5.5,2.4C260.6,72.7,260.8,72.7,260,72.2L260,72.2z M285,63.4c-0.7-1.8-2.9-15.8-5.8-36.4
	c-2.1-14.8-2.2-16.6-1.6-17.6c0.4-0.6,1.3-1.3,1.9-1.4c1-0.2,20.8-3.1,28.5-4.1c3.6-0.5,3.6-0.4,5.3,11.9c1.7,12.1,4,27.2,5.4,34.8
	c1.5,8.2,1.2,9.4-1.8,9.7c-3.1,0.3-3.5-0.6-5.5-13.3c-1.3-7.8-2.1-11.5-2.5-11.7c-1.1-0.4-12.4,0.9-13.3,1.6c-0.7,0.5-0.7,1.2,0,6.8
	c0.4,3.4,1.1,8.3,1.6,10.9c1,6.3,1,8.2-0.1,8.8c-1,0.6-7.6,1.6-9.9,1.6C285.9,64.8,285.4,64.5,285,63.4z M296.7,27.9
	c4.2-0.7,8.3-1.5,9.1-1.6c0.8-0.1,1.6-0.6,1.9-1.1c0.6-1.3-1.1-12.2-2-13.2c-0.7-0.7-1.7-0.7-10.6,0.8c-5.4,0.9-10,1.9-10.4,2.2
	c-0.5,0.5-0.4,1.9,0.3,6.9c0.5,3.4,1.1,6.5,1.3,6.8C286.8,29.5,288.2,29.4,296.7,27.9L296.7,27.9z M391.7,63.2
	c-3.3-0.5-4.7-1.6-4.7-3.6c0-1.3,0.8-6.6,4.7-31.9c2.4-15.5,2.4-15.3,0.9-15.9c-0.7-0.3-3.3-0.8-5.8-1.1c-5-0.7-6.4-1.8-5.8-4.3
	c0.6-2.4,2-2.8,7.5-2.1c22.5,3.1,25.6,3.6,26.3,4.9c0.9,1.6,0.6,3.4-0.7,4.6l-1.2,1.2l-5.7-0.9c-3.9-0.6-5.9-0.7-6.3-0.4
	c-0.9,0.9-2.6,13.1-2,14.1c0.3,0.6,1.4,1.1,2.8,1.3c4,0.6,4.3,1.3,3.1,8c-0.4,2.1-1.6,8.7-2.6,14.7s-2.1,11.1-2.4,11.5
	C399.2,63.9,396,63.9,391.7,63.2z M361.3,58.3l-1.2-0.9l0.4-23.6c0.3-18.2,0.2-23.8-0.2-24.4c-0.5-0.6-2.5-0.8-11-0.8h-10.4
	l-0.3,7.3c-0.4,8.2-0.4,8.1,3.3,8.1c1.3,0,2.6,0.3,2.9,0.6c0.7,0.7,0.3,31.7-0.4,33.1c-0.4,0.8-1.3,0.9-6.4,0.9
	c-5.3,0-5.9-0.1-6.4-1c-0.6-1.1,0.2-53.2,0.8-54.9c0.2-0.5,0.8-1,1.5-1.1c0.6-0.2,8.3-0.1,17.1,0.1l15.9,0.4l0.6,1.3
	c0.5,1,0.5,7,0.1,26.5c-0.3,13.9-0.6,25.9-0.8,26.7C366.2,59.1,363.6,59.9,361.3,58.3L361.3,58.3z"/>
<path class="st1" d="M488.2,661.3c-1.4-1-1.5-2.9-0.2-4c0.5-0.4,5.6-3.2,11.4-6.1c5.8-2.9,10.7-5.7,11-6.2c0.4-0.7-0.3-2.4-2.7-7.2
	c-2.7-5.4-3.4-6.4-4.5-6.5c-1.2-0.1-2.8,0.6-16.2,7.5c-3.4,1.7-6.7,3.2-7.3,3.2c-1.4,0-2.8-1.7-2.4-3.1c0.2-0.7,2.9-2.4,8.2-5.2
	c4.4-2.3,8.1-4.5,8.3-4.9c0.3-0.8-1.6-5-6.5-14.5c-2-3.8-3-5.3-3.7-5.3c-0.5,0-4.4,1.7-8.6,3.7c-4.2,2-8.1,3.7-8.6,3.6
	c-1.5-0.1-2.5-1.4-2.2-2.8c0.2-1,3-2.6,13.6-8c7.3-3.8,13.8-6.8,14.4-6.8c1.3,0,2.6,2.4,13.5,24c4.2,8.2,8.7,17,10,19.5
	c1.5,2.8,2.3,4.9,2.1,5.5c-0.2,0.6-2.8,2.2-6.9,4.1c-3.6,1.8-9.7,4.8-13.5,6.8c-3.8,2-7.2,3.6-7.5,3.6
	C489.6,662.1,488.8,661.7,488.2,661.3L488.2,661.3z M152.6,651.1c-3.8-2.6-8.3-5.6-9.8-6.7c-1.5-1.1-4.3-2.9-6.2-4.1
	c-4.8-3.1-9.7-7-10.3-8.1c-0.6-1.1-0.1-2.4,2.5-6.4c3.1-4.9,4.7-6.4,6.6-6.4c2.2,0,3.8,1.5,3.8,3.5c0,0.8-0.7,2.3-1.5,3.4
	c-0.8,1.1-1.5,2.4-1.5,2.9c0,0.9,2.1,2.5,13.4,10.4c8,5.6,9.3,6.3,10.3,5.7c1-0.6,7.1-9.1,9-12.6l1.5-2.6l-2.9-2.7
	c-1.6-1.5-2.9-3-2.9-3.4c0-1.3,3-5.9,15.1-23c3.7-5.3,3.9-6.1,1.5-7.5c-0.8-0.5-3.9-2.6-6.8-4.7c-3.2-2.3-5.9-3.9-6.7-3.9
	c-1,0-1.8,0.7-3.5,2.8c-2.4,3.2-3.5,3.5-5.6,1.6c-2-1.7-1.9-3.8,0.6-7.4c3.8-5.6,4.9-6.8,6.4-6.8c0.9,0,4.8,2.4,11.6,7.1
	c5.7,3.9,13,8.9,16.3,11.2c6.3,4.3,7.2,5.4,6,7.6c-0.8,1.5-4.6,7.2-12.1,18c-3.2,4.7-7.7,11.2-9.9,14.4c-8,11.7-14.1,20.4-15.2,21.5
	c-0.6,0.6-1.4,1.2-1.9,1.2C159.9,655.9,156.4,653.7,152.6,651.1L152.6,651.1z M532.3,632.8c-1.5-1.9-3.8-4.9-4.9-6.6
	c-4.8-6.9-5.4-7.8-6.5-9c-0.6-0.7-2.4-3.1-3.9-5.4c-1.5-2.3-4.3-6.1-6.1-8.6c-6.5-8.7-7.8-10.7-7.6-11.5c0.2-0.4,1.1-1.3,2-1.9
	c1-0.7,2.9-2.1,4.4-3.2c1.4-1.1,4.7-3.5,7.2-5.3c2.5-1.8,6.3-4.5,8.4-6c4.2-3.1,5.8-3.5,6.8-1.7c0.3,0.6,1.7,2.5,3,4.2
	c1.3,1.7,3.5,4.7,4.9,6.8c1.4,2,4,5.6,5.8,8c12.9,17.3,16.6,22.7,16.6,24.1c0,1.3-2.2,2.8-3.5,2.3c-0.5-0.2-2.2-2.2-3.8-4.5
	c-4.6-6.7-8.7-11.8-9.6-11.8c-0.5,0-1.6,0.6-2.5,1.3c-2.6,2-3.5,1.7-6.2-2.2c-1.4-1.9-4.5-6.1-6.9-9.4c-2.5-3.3-4.7-6.4-5.1-7.1
	c-0.3-0.6-1.1-1.2-1.6-1.2c-2,0-12.3,7.7-12.3,9.2c0,0.5,1.2,2.5,2.7,4.4c1.5,1.9,4.1,5.5,5.9,7.9c1.8,2.4,4.2,5.8,5.4,7.5
	c1.2,1.7,3.3,4.6,4.6,6.5c1.3,1.9,3.9,5.5,5.8,7.9c3.7,4.8,4.3,7,2.4,8C535.8,636.7,535.1,636.4,532.3,632.8L532.3,632.8z
	 M111.7,601c-7.1-6.5-17.9-18-17.9-19c0-1.5,0.6-2.2,2.1-2.6c1.2-0.3,2.3,0.5,10.8,8.7c5.2,5,9.7,9.1,10.2,9.1
	c0.8,0,9.6-8.8,10.5-10.4c0.6-1-2.7-4.8-11.6-13.3c-5.5-5.2-6.4-6.6-5.7-8.7c0.2-0.8,0.8-1.1,2-1.1c1.4,0,2.5,0.9,7.6,5.7
	c3.3,3.1,6.4,5.9,6.9,6.2c0.9,0.5,1.9-0.4,8.4-7c4.1-4.1,7.4-7.8,7.4-8.2c0-0.4-2.8-3.6-6.2-7c-4.9-5-6.2-6.6-6.2-7.7
	c0-1.8,1.2-2.8,2.8-2.4c1.6,0.4,22.5,20.8,22.5,21.9c0,1.9-36.8,39.2-38.7,39.2C115.9,604.4,113.8,602.8,111.7,601L111.7,601z
	 M569.8,594.7c-4.5-4.4-12.7-12.5-18.2-17.9s-10.5-10.2-11-10.8c-0.6-0.5-1-1.2-1-1.4c0-1.1,26.4-28.1,27.9-28.6
	c1.8-0.6,2.3-0.1,31.4,28.7c8.2,8.1,8.6,8.6,8.2,9.9c-0.3,0.7-3,3.8-6.1,6.9c-3.1,3.1-6.7,6.8-8.1,8.4s-3.3,3.4-4.1,4.2
	c-0.9,0.8-3.2,3-5.1,5c-2.2,2.3-4,3.6-4.6,3.6C578.4,602.8,574.9,599.7,569.8,594.7L569.8,594.7z M585.4,589.6
	c2.9-3.3,7.5-7.9,10.2-10.4c2.6-2.4,4.8-4.8,4.8-5.3c0-0.5-2.6-3.4-6-6.5c-3.3-3.1-10.2-9.7-15.2-14.7c-5.1-5-9.6-9.1-10.1-9.1
	c-1.1,0-6.3,4.8-6.3,5.8c0,0.4,0.7,1.6,1.5,2.6c0.9,1,1.5,2.1,1.5,2.6c0,0.5-1.2,2.1-2.6,3.5c-1.4,1.5-4.4,4.6-6.7,6.9
	c-2.3,2.3-4.1,4.6-4.1,4.9c0,0.4,1.9,2.5,4.2,4.8c2.3,2.2,8,7.8,12.7,12.4c5.7,5.7,8.8,8.4,9.6,8.4
	C579.8,595.6,581.7,593.8,585.4,589.6L585.4,589.6z M76.9,564.1c-0.6-0.6-2.3-3.1-4-5.5c-1.6-2.5-4-5.9-5.3-7.6
	c-4.3-5.6-8.4-12-8.2-13c0.1-0.5,1.9-2.1,4-3.6c9.3-6.6,11.8-8.5,12-9.1c0.1-0.3-0.3-1.6-1-2.8c-0.7-1.3-1.1-2.6-1-3.1
	c0.2-0.5,2.6-2.5,5.3-4.5c2.8-1.9,8.1-5.8,12-8.6c6.1-4.4,7.2-5,8.8-4.9c1.7,0.1,1.8,0.3,2,2c0.1,1.8,0,1.9-4.3,4.9
	c-2.4,1.7-6.4,4.6-8.9,6.4c-2.5,1.8-5.2,3.7-5.9,4.1c-2.2,1.1-2.2,2.4-0.2,5.4c4.6,6.8,10.6,14.5,11.3,14.7c0.5,0.1,3.5-1.7,6.7-4
	c3.2-2.3,6.5-4.6,7.4-5.2c0.8-0.6,2.9-2.1,4.6-3.4c1.7-1.3,3.6-2.3,4.2-2.3c1.3,0,6.9,7.4,6.9,9.1c0,0.7-1,1.7-3,3
	c-1.6,1.1-4,2.8-5.2,3.8c-2.4,1.9-14.9,10.9-21.7,15.6c-2.1,1.5-5.4,3.8-7.2,5.3C80,565.6,78.7,566.1,76.9,564.1L76.9,564.1z
	 M87.2,553.6c2.8-2,5.2-4,5.4-4.5c0.4-1.1-0.8-3.1-5.6-9.5c-2.1-2.8-4.3-5.9-4.9-6.9c-1.5-2.5-3.2-2.6-5.8-0.2c-1,0.9-3.4,2.7-5.3,4
	c-4.2,2.8-4.2,3.4-0.9,7.8c1.4,1.8,4.1,5.5,6,8.3c3,4.2,3.8,5,4.8,4.9C81.5,557.3,84.4,555.6,87.2,553.6L87.2,553.6z M619.8,546.8
	c-2.7-1.9-6.4-4.6-8.1-6c-2.8-2.2-3.3-2.4-4.4-1.9c-0.7,0.3-1.5,1.1-1.7,1.7c-0.2,0.6-0.9,1.6-1.5,2.1c-1.2,1.1-0.4,1.5-14.8-9.2
	c-2.9-2.1-6.3-4.6-7.7-5.5c-3.2-2-4.8-3.5-4.8-4.5c0-0.4,0.9-1.9,1.9-3.4c1.1-1.4,2.4-3.3,2.8-4c1.6-2.6,2.6-2.2,11.1,4.2
	c3.2,2.4,7.3,5.5,9.1,6.7c1.8,1.3,4.6,3.4,6.3,4.6c1.7,1.3,5.3,3.9,8.1,5.9c10.1,7.3,11.6,8.5,11.6,9.5c0,1-1.7,3.1-2.5,3.1
	C625,550.3,622.6,548.7,619.8,546.8L619.8,546.8z M637.1,530.3c-0.4-0.2-0.9-0.7-1.2-1.3c-0.4-0.8,0-1.9,2.1-5.8
	c1.4-2.6,2.6-5.3,2.6-5.9c0-0.8-1.4-1.9-5.7-4.5c-6.9-4.1-8.2-4.3-10-1.1c-0.6,1.1-1.5,2.1-2,2.2c-0.5,0.1-2.2-0.6-3.8-1.6
	c-1.6-1-4-2.3-5.3-2.9c-1.3-0.6-6.1-3.4-10.7-6.1c-6.4-3.8-8.4-5.2-8.4-5.9c0-1.2,4.6-9.1,5.5-9.5c0.8-0.3,4.2,1.4,14.4,7.3
	c18.2,10.5,27.7,15.8,28.8,15.9c1.1,0.1,1.7-0.7,5.8-7.2c1.9-3,3.8-3.6,5.2-1.5c0.8,1.3,0.8,1.4-1.8,6.3c-1.5,2.8-3.4,6.2-4.3,7.5
	c-0.9,1.4-3,5.1-4.7,8.2c-2.6,4.8-3.3,5.8-4.4,5.9C638.3,530.6,637.5,530.5,637.1,530.3L637.1,530.3z M42.8,512
	c-0.6-0.9-2.8-5.3-4.9-9.7c-2.1-4.4-5.1-10.3-6.5-13.2c-2.2-4.3-2.6-5.4-2-6c1-1.2,8.2-4.5,9.9-4.5c3.3,0,3.4,3.3,0.2,5
	c-3.4,1.8-3.4,1.7,2,12.7c3.1,6.2,5.3,10.1,5.7,10.1c1,0,12.2-5.5,13.1-6.4c0.6-0.6,0.6-1.1-0.4-3.7c-0.6-1.6-1-3.1-0.9-3.2
	c0.2-0.2,5.5-3,12-6.2c9.8-4.9,11.7-6.1,11.9-7.1c0.2-1.7-5.3-12.8-6.6-13.2c-0.6-0.2-1.9,0.1-3.2,0.8c-1.2,0.6-2.5,1-2.8,0.8
	c-1.1-0.4-2.4-2.7-2-3.6c0.5-1.2,8.2-5,9.8-4.8c1.5,0.2,2,1,9.7,17.1c3,6.2,5.3,11.7,5.3,12.3c-0.2,1.2-2.7,2.5-27.2,14.3
	c-7.8,3.7-15.8,7.6-17.8,8.6c-2,1-3.8,1.8-4,1.8C44,513.7,43.4,512.9,42.8,512L42.8,512z M661,486.9c-0.8-0.2-3.4-1.2-5.7-2.2
	c-2.3-1-7.4-3-11.3-4.4c-4-1.4-10.7-4-14.9-5.7c-4.3-1.7-9.6-3.7-11.8-4.5c-5.6-1.9-7.1-3.6-5.1-5.6c1.3-1.3,3.5-0.8,14.5,3.6
	c7.7,3,10.1,3.8,10.9,3.4c0.5-0.3,1.5-2,2.1-3.7c3-8.1,3.4-9.5,3.2-10.2c-0.2-1.1-2.5-2.1-11.1-5.2c-11.2-4-12.2-4.4-12.2-6.1
	c0-0.8,0.3-2.2,0.7-3.2c0.4-1,1.1-2.8,1.6-4.2c0.8-2.1,1.1-2.4,2.4-2.4c0.8,0,5.6,1.6,10.6,3.6c22,8.6,31.1,12.1,35.1,13.6
	c3.2,1.2,4.3,1.8,4.5,2.7c0.4,1.7-10.8,31.6-11.8,31.2C662.6,487.3,661.8,487.1,661,486.9L661,486.9z M660.9,477
	c0.4-1.2,2.1-5.3,3.7-9.2c3-7.2,3.3-8.8,2.2-9.7c-0.4-0.3-3.4-1.6-6.8-3c-4.3-1.7-6.4-2.3-6.9-1.9c-0.4,0.3-1.2,1.6-1.8,3
	c-0.6,1.4-2.3,5.5-3.8,9.2c-1.5,3.7-2.7,7.3-2.6,8c0.1,1.2,0.9,1.6,6.8,4C659.2,480.5,659.6,480.4,660.9,477z M21,462.4
	c-0.4-0.4-0.8-1.3-0.8-1.8c0-1.7,0.9-2.1,15.6-6.4c2.5-0.7,4.7-1.7,4.8-2.1c0.2-0.4-0.1-1.9-0.6-3.4c-0.5-1.5-0.7-2.8-0.4-3.1
	c0.2-0.2,3.9-1.5,8.2-2.8c12.9-3.9,17-5.3,17.5-6.2c0.5-0.9-0.3-4.5-2.9-13.1c-1.8-5.8-1.9-7.6-0.4-8.3c2.1-1.1,3-0.2,4.4,4.6
	c0.7,2.5,2.7,8.8,4.4,14c1.7,5.2,3.1,10.6,3.2,11.8l0.1,2.3l-4.4,1.4c-2.4,0.8-5.7,1.8-7.2,2.2c-6.3,1.8-13.9,4.1-18.6,5.7
	c-6.1,2.1-19.7,5.9-21,5.9C22.2,463.2,21.4,462.8,21,462.4z M673.8,432.2c-3.1-0.5-10.4-1.9-16.2-3c-10-1.9-22.3-4.2-27.2-4.9
	c-1.8-0.3-2.3-0.6-2.5-1.7c-0.4-1.7,0.4-2.9,2-3.1c1.3-0.2,20.2,3.1,35.2,6c11.6,2.3,11.4,2.2,12.1,1.4c0.6-0.8,2.6-11.3,2.6-14.1
	c0-1.1-0.3-1.7-0.9-1.9c-2.1-0.6-14.8-3-29.2-5.5c-8.5-1.5-16-2.9-16.7-3.3c-1.5-0.7-1.9-2.6-1-3.8c0.5-0.6,1.3-0.7,3-0.5
	c2.6,0.3,39.3,6.7,42.7,7.5c1.2,0.3,2.6,0.4,2.9,0.2c0.9-0.3,1.4-2.4,2.6-9.2c0.8-4.9,0.8-5.5,0.1-6.2c-1.1-1.1-13.2-3.3-14.4-2.7
	c-0.9,0.5-1.2,1.2-1.8,4.2c-0.3,1.8-0.4,1.9-2.3,1.9c-1.1,0-3.7-0.3-5.7-0.8c-2.1-0.4-8.2-1.6-13.6-2.6c-12.5-2.4-11.6-2.1-11.6-4
	c0-1.7,1.2-7.7,1.8-9.2c0.5-1.1,0-1.2,9.2,0.6c8.9,1.7,17.8,3.4,32.8,6c5.8,1,11,2,11.5,2.1c0.6,0.2,0.9,0.8,0.9,2
	c0,4.5-7.5,44.6-8.4,45.2C680.9,433.4,680.5,433.4,673.8,432.2L673.8,432.2z M8.2,413.1c-1.3-1-5.5-30.4-4.5-31.5
	c0.8-1,3.3-1.1,4-0.2c0.3,0.4,1.3,6.2,2.3,12.9c1.2,7.9,2.1,12.6,2.5,13c0.6,0.6,1.7,0.6,7.6-0.3c3.8-0.6,7.2-1.3,7.6-1.6
	c0.9-0.8,0.9-1.4-0.8-14.4c-0.9-6.3-1.4-11.9-1.3-12.4c0.6-1.9,4-1.8,4.5,0.2c0.1,0.6,0.8,4.7,1.4,9c0.6,4.3,1.4,8.3,1.8,8.7
	c0.6,0.8,1.4,0.7,10.6-0.6c5.5-0.8,10.4-1.7,10.9-1.9c1.2-0.6,1.1-1.6-0.1-11c-0.6-4.2-0.9-8-0.7-8.5c0.7-2.4,4.1-1.4,4.6,1.2
	c2.4,13.8,4.3,29,3.9,29.5c-0.3,0.4-1.8,0.8-3.2,1s-11.8,1.7-23,3.4c-11.2,1.7-21.5,3.2-22.9,3.4c-1.4,0.2-2.9,0.4-3.4,0.5
	C9.4,413.6,8.7,413.4,8.2,413.1L8.2,413.1z M637,363.3c-0.8-1.4-0.7-2.4,0.3-3.4c0.7-0.7,2.6-0.8,13.3-0.8c9.5,0,12.7-0.2,13.4-0.7
	c0.9-0.6,0.9-1.6,0.7-11.4c-0.2-9.6-0.3-10.8-1.1-11.4c-0.7-0.5-3.7-0.6-14-0.4c-9.7,0.2-13.1,0.1-13.4-0.3
	c-0.2-0.3-0.5-2.8-0.7-5.4c-0.2-3.9-0.1-4.9,0.5-5.6c0.7-0.7,4.2-0.9,27.7-1.2c15.1-0.2,27.1-0.2,27.3,0.1c0.2,0.2,0.6,7.7,0.8,16.5
	c0.4,15.9,0.4,16.1-0.7,16.6c-0.7,0.4-4.5,0.6-10.3,0.6c-10.8,0-11,0.1-11.3,4.1c-0.1,1.5-0.5,2.8-0.8,2.9s-7.5,0.3-15.9,0.5
	C637.9,364.3,637.6,364.3,637,363.3L637,363.3z M685.8,350.2c0.7-0.6,0.8-2,0.4-11.2c-0.3-9-0.5-10.7-1.2-11.2
	c-1.2-0.9-13.5-0.9-14.8,0c-0.8,0.6-0.9,1.7-0.7,11.6c0.1,9,0.3,11,0.9,11.5C671.6,351.7,684.8,351.1,685.8,350.2L685.8,350.2z
	 M47.7,333.2c-45.7-4.8-46.5-5-45.9-7.8c0.1-0.6,1-7.6,1.8-15.5c0.9-7.9,1.7-14.6,1.8-14.8c0.4-0.6,3.4-0.5,18.5,1.2
	c12.5,1.3,34.9,3.6,35.9,3.6c0.2,0,0.5,0.4,0.6,0.8c0.4,1-2.7,30.4-3.3,32C56.7,334,55.7,334,47.7,333.2L47.7,333.2z M24.3,324.6
	c0.2-0.4,0.6-1.9,0.8-3.3l0.4-2.6l2.3-0.1c1.3-0.1,7.3,0.4,13.4,1.1c6.2,0.7,11.4,1,11.9,0.8c0.6-0.3,1-1.9,1.4-6
	c0.9-8.2,0.8-9.4-0.6-9.9c-1.2-0.5-38.4-4.7-41.5-4.7c-0.9,0-1.8,0.3-2,0.6c-0.5,0.7-2.2,16.8-2.3,20.4c0,1.5,0.2,2.8,0.5,3
	c0.7,0.4,11.6,1.7,13.6,1.6C23.3,325.4,24.1,325,24.3,324.6L24.3,324.6z M633.9,310.2c-0.3-0.5-0.9-3.1-1.3-5.8
	c-0.4-2.6-1.6-9.4-2.6-15c-1.1-5.9-1.6-10.4-1.4-10.7c0.5-0.5,27.4-5.9,42.5-8.5c9.1-1.6,10.9-1.7,11.5-1.2c0.7,0.8,2.6,9.5,4.6,21
	c1.6,9.4,1.7,10.7,0.1,11.3c-0.6,0.2-6.6,1.4-13.3,2.6c-6.7,1.2-18.2,3.3-25.6,4.7c-7.4,1.4-13.6,2.5-13.8,2.5
	C634.6,311.2,634.2,310.7,633.9,310.2L633.9,310.2z M655.1,302.2c7.7-1.5,15.2-3,16.6-3.2c3.3-0.5,4.1-1.3,3.6-4
	c-0.2-1.2-0.4-2.4-0.4-2.6c0-0.3,1.1-0.9,2.4-1.3c1.4-0.4,2.7-1.2,3-1.7c0.3-0.6,0.1-2.9-0.6-7.1c-1.2-7.1-1.4-7.6-2.4-8
	c-0.4-0.2-7.3,0.9-15.3,2.3c-22.2,4-26.6,4.9-27.5,5.7c-0.7,0.7-0.7,1.3,0,5.4c3,16.4,3.2,17.2,5.5,17.2
	C640.6,305,647.4,303.7,655.1,302.2L655.1,302.2z M54.4,285.9c-4.3-1.1-10.7-2.8-14.4-3.9c-3.7-1-11.6-3.2-17.5-4.7
	c-6-1.6-11.4-3.2-12-3.6c-1.4-0.9-1.3-1.6,0.7-7.7c0.7-2,2.4-8,3.8-13.3c1.4-5.3,2.7-9.9,2.9-10.2c0.4-0.6,2.8-0.7,3.6-0.1
	c1.3,0.9,1,2.5-1.9,13.6c-1.7,6.4-3,12.1-3,12.7c0,1.4,0.7,1.8,7,3.5c7.3,2,8.3,2.1,9,0.9c0.3-0.6,1.6-5.3,2.9-10.5
	c3.1-12.5,3.3-13.3,4.7-14.2c1.1-0.7,1.3-0.7,2.5,0.1c1.7,1.1,1.7,2.1-0.8,10.4c-2.3,7.9-2.5,9.7-1.2,10.2c0.5,0.2,4,1.1,7.9,2.1
	c3.8,1,8,2.1,9.2,2.5c4,1.4,4.4,1,7-10.5c0.8-3.3,1.7-6.3,2.2-6.8c1.1-1.2,3-1.1,3.9,0.2c0.7,1,0.6,1.5-0.2,4.5
	c-0.9,3.4-1.3,4.8-4.9,18.4c-1.8,6.7-2.5,8.5-3.3,8.5C62.3,287.9,58.7,287,54.4,285.9L54.4,285.9z M652.3,258.8
	c-0.4-0.4-1.9-4.2-3.2-8.4c-2.5-7.8-3.3-9.4-5-9.4c-0.9,0-8.1,2.5-19.1,6.5c-2.7,1-5.3,1.7-5.7,1.6c-0.7-0.3-4.5-9.1-4.5-10.5
	c0-1,4.3-2.8,15.5-6.5c5.2-1.7,12.1-4.1,15.2-5.3c9.5-3.7,21-7.2,21.8-6.6c0.4,0.3,2.4,5.3,4.5,11.3s4.2,12,4.8,13.5
	c1.9,4.7,1.1,7.2-2.1,6.7c-1.5-0.2-2.1-1.5-6.3-14.1c-3.4-10.2-3.7-10.8-5-11c-1.3-0.2-13.6,4.1-14.6,5.1c-0.3,0.3,0,1.6,0.6,3.2
	c0.6,1.5,2.5,7.1,4.2,12.4c3,9.2,3.1,9.8,2.4,11C654.9,259.8,653.4,260,652.3,258.8L652.3,258.8z M71.4,243.4
	c-0.9-0.4-3.8-1.7-6.5-3c-5.6-2.6-6.7-3.7-5.4-5.8c1.1-1.7,2.5-1.6,7.4,0.8c2.3,1.1,4.5,2.1,4.9,2.1c0.9,0,1.5-0.8,2.4-3.1
	c0.4-1,1.6-3.6,2.7-5.9c1.1-2.2,2-4.4,2-4.8c0-0.7-3.6-2.6-13.1-6.9c-4.7-2.1-6.3-2.6-7-2.2c-0.5,0.3-2,3.2-3.5,6.4
	c-4.9,11-5.3,11.8-6.2,11.8c-1.6,0-22.9-9.7-23.6-10.7c-0.4-0.7,1.5-5.7,5.3-13.7c1.7-3.6,3.9-8.4,4.7-10.6c1.9-4.9,2.8-6.3,4-6.3
	c0.9,0,8.4,2.9,9.8,3.8c0.8,0.5,0.8,3,0,3.9c-0.9,0.9-2.6,0.8-4.8-0.3c-2.5-1.2-2.7-0.9-6.5,7.8c-1.7,4-3.6,8.1-4.1,9.1
	c-1.9,3.8-1.7,4.1,5.2,7c3.4,1.5,6.7,2.6,7.3,2.5c1.2-0.2,4.7-6.7,7.9-14.8c2.5-6.3,4.1-9.6,5-9.9c0.4-0.2,2,0.3,3.5,0.9
	c1.5,0.7,4.1,1.7,5.6,2.3c1.6,0.6,6.8,3,11.7,5.3c7.7,3.6,8.9,4.4,8.9,5.4c0,0.6-1.2,3.7-2.6,6.8c-1.4,3.1-3,6.8-3.6,8.1
	c-0.5,1.3-2.3,5.2-3.8,8.5c-2.8,5.9-2.9,6.1-4.6,6C73.7,244.1,72.3,243.8,71.4,243.4L71.4,243.4z M609.2,224.7c-1.1-2-0.1-3,6.8-6.9
	c3.7-2.1,7.9-4.3,9.2-4.9c1.3-0.6,4.6-2.3,7.2-3.8c2.6-1.5,7.6-4.2,11-6c8.6-4.4,8.4-4.1,6-9.1c-1.1-2.2-3.4-6.7-5.2-9.8
	c-3.8-6.7-4.1-6.9-8.7-4.1c-1.6,1-4.1,2.4-5.6,3.2c-1.5,0.8-2.8,1.8-3,2.2c-0.2,0.4,0.3,2,1,3.5c1.5,3.4,1.9,2.9-7.2,7.7
	c-16.8,8.9-19.1,10-20.4,10c-1.1,0-1.6-0.7-3.7-4.6c-1.5-2.9-2.3-4.9-2.1-5.5c0.2-0.5,2-1.7,4-2.6c2-1,5.1-2.6,6.8-3.5
	c1.7-1,6.1-3.3,9.7-5.2c3.7-1.9,7.5-4,8.6-4.6c1.1-0.7,5.8-3.2,10.6-5.6c5.9-3,8.8-4.2,9.2-3.9c0.8,0.8,5.1,8.4,9.4,16.5
	c2.1,4.1,4.5,8.6,5.3,9.9c1.7,3.1,1.8,3-6.9,7.6c-12.3,6.5-25.7,13.6-29.1,15.5C613.2,225.5,610.2,226.5,609.2,224.7L609.2,224.7z
	 M583.6,181.9c-0.8-1.1-2.6-3.6-4.1-5.6c-1.5-2-2.7-4-2.7-4.5c0-1.1,1.9-2.8,5.7-5.3c1.6-1,4.7-3.3,7-5c2.3-1.7,5.8-4.3,7.8-5.7
	c2-1.4,5.6-4,8-5.8c6-4.5,12.9-9.5,17.4-12.6c2.1-1.4,4.8-3.4,6-4.4c3.3-2.7,6.2-2.2,7.1,1.4c0.5,1.9-1.1,3.6-6.5,7.2
	c-2.5,1.7-4.7,3.3-4.9,3.6c-0.2,0.3-2.1,1.7-4.2,3.2c-2.1,1.5-4.1,3.1-4.3,3.5c-0.3,0.6,0.1,1.7,1.6,3.9c1.1,1.7,2,3.2,2,3.4
	c0,0.4-9,7.5-12.9,10.2c-1.5,1-4.3,3-6.2,4.5c-2,1.5-4.5,3.3-5.8,4.1c-1.2,0.8-3.6,2.4-5.2,3.6c-1.7,1.2-3.3,2.2-3.7,2.2
	C585.3,183.9,584.4,183,583.6,181.9L583.6,181.9z M107.2,178.4c-0.7-0.5-2.5-2-4.1-3.4c-1.6-1.4-3.5-3.1-4.4-3.8
	c-0.9-0.7-3.3-2.7-5.3-4.5c-2.1-1.8-5.2-4.3-6.9-5.6c-1.7-1.3-3.9-3.2-5-4c-2.1-1.8-3.9-3.3-7.3-6c-1.3-1-4-3.3-6-5
	c-5.6-4.8-6-5.1-7-5.7c-1.8-1.1-5-4.5-5-5.3c0-0.8,1.7-3.1,5.6-7.5c0.5-0.6,1.3-1.6,1.7-2.3c0.5-0.7,2.6-3.3,4.8-5.7
	c2.2-2.4,4.5-5.2,5.1-6.2c0.6-1,2.7-3.5,4.6-5.5c3.8-4.1,5.5-4.7,7.5-2.7c2.1,2.1,1.5,3.7-4.4,10.8c-11.9,14.4-14.7,17.9-14.7,18.6
	c0,0.4,0.6,1.3,1.4,1.9c0.8,0.6,3,2.4,5,4c2,1.6,3.8,3.2,4,3.6s1.3,1.2,2.5,1.8l2.1,1.1l2.1-2.2c1.1-1.2,4.3-5,7-8.4
	c2.7-3.4,5.6-6.8,6.3-7.5c0.7-0.7,2-2.2,2.9-3.3c2.7-3.4,3.3-3.9,4.7-3.9c1.7,0,3.8,2.2,3.8,3.8c0,1.3-2.3,4.4-10.7,14.4
	c-2.2,2.7-3.7,4.8-3.5,5.3c0.2,0.4,2.1,2.2,4.3,4c2.2,1.8,4.6,3.8,5.3,4.5c0.7,0.7,2.6,2.2,4.1,3.4c1.6,1.2,3.6,2.9,4.6,3.7
	c1,0.9,2.1,1.6,2.4,1.6c0.9,0,2.9-1.9,5.2-4.9c1.1-1.4,3.5-4.4,5.5-6.6c1.9-2.2,3.5-4.2,3.5-4.4c0-0.5,2.4-1.6,3.6-1.6
	c1.5,0,3.1,1.8,3.1,3.5c0,1.4-2.1,4.3-8.3,11.5c-1.1,1.3-3.3,3.9-4.9,5.9c-1.6,2-3.5,4.3-4.2,5.2c-0.7,0.9-2.4,2.8-3.6,4.4
	C111,179.6,109.8,180.1,107.2,178.4L107.2,178.4z M547.1,138.8c-1.7-1.7-1-3.1,5.7-10.9c3.6-4.2,7.1-8.2,7.9-8.9
	c0.7-0.7,2.3-2.4,3.4-3.8c1.1-1.4,2.4-2.9,2.8-3.4c5.5-6,9.8-11.3,9.8-12.1c0-0.9-2.9-3.9-6.4-6.5c-1.4-1.1-4.2-3.5-6-5.3
	c-1.9-1.8-3.8-3.3-4.3-3.3c-1.5,0-10,9.8-10,11.5c0,0.5,0.8,1.8,1.8,2.7c2.2,2.1,2.3,3.3,0.2,5.2c-0.9,0.8-2.2,2.4-3.1,3.5
	c-0.8,1.1-2.7,3.4-4.3,5c-1.5,1.6-3.7,4.1-4.8,5.4c-3.3,4.2-6.6,7.4-7.6,7.4c-1.2,0-6.8-4.2-7.9-5.9c-0.5-0.7-0.6-1.5-0.4-1.9
	c1.1-1.8,4.1-5.6,6.3-7.9c1.3-1.4,4.1-4.5,6.1-7c2-2.4,5-5.9,6.6-7.7c1.6-1.8,4.5-5.3,6.6-7.7c6.4-7.5,9.2-10.4,10.1-10.4
	c1,0,4.3,2.5,9.7,7.4c2.1,1.9,5.3,4.7,7,6.1c5.6,4.6,8.5,7.5,8.5,8.3c0,0.4-1.6,2.5-3.5,4.6c-4.9,5.4-11.7,13.2-14.5,16.5
	c-4.7,5.6-9.1,10.8-12.2,14.1c-1.7,1.9-3.3,3.8-3.6,4.3C550.4,139.4,548.2,139.8,547.1,138.8L547.1,138.8z M152.3,130.4
	c-0.9-0.8-2.9-3.1-4.5-5.2c-1.6-2.1-3.3-3.9-3.6-4c-0.4-0.1-1.7-1.6-2.9-3.2c-1.2-1.6-2.7-3.4-3.3-3.9s-2.9-3.1-5.1-5.7
	c-2.2-2.6-4.5-5.2-5.1-5.9c-0.6-0.7-2.1-2.4-3.2-3.8c-3.4-4.2-4.1-4.1-9.4,0.8c-3.3,3.1-4.4,3.5-5.9,2.4c-1.9-1.5-1.6-2.6,2-6.2
	c1.9-1.9,5-4.6,6.8-6.1c1.8-1.5,4.7-4,6.4-5.6c4.5-4.2,6.2-5.4,7.8-5c2.8,0.7,2.7,4-0.2,5.8c-2.3,1.4-6.3,5.5-6.3,6.4
	c0,1.2,9.2,11.3,10.3,11.3c0.5,0,1.8-0.7,2.8-1.5c1.1-0.9,2.2-1.5,2.6-1.5c0.6,0,11.1,11.3,13.6,14.7c0.8,1.1,2.1,2.6,2.9,3.3
	c2.7,2.5,5,6.1,4.7,7.4c-0.4,1.3-6.1,6.2-7.8,6.7C154.2,131.7,153.4,131.4,152.3,130.4z M172.6,107c-2.1-3.2-4.5-7-5.3-8.4
	c-0.8-1.4-2.5-4.1-3.8-5.9c-1.3-1.8-3.3-4.9-4.4-6.7c-1.1-1.8-4.1-6.5-6.6-10.3c-2.5-3.8-4.7-7.5-4.9-8.2c-0.4-1.8,0.4-2.9,2.2-2.9
	c1.3,0,1.9,0.6,4.3,4.1c1.6,2.3,4,5.9,5.4,8.2c1.4,2.2,2.9,4.2,3.3,4.3s1.9-0.3,3.2-1.1c1.3-0.8,2.8-1.3,3.1-1.1
	c0.7,0.3,3.1,3.9,10.5,15.6c5,8,4.2,7.9,13.3,2c2.2-1.4,4.1-3,4.3-3.5c0.4-1.2-0.7-3.2-5.1-9.7c-2-3-4.9-7.5-6.5-10
	c-1.5-2.6-3.6-5.8-4.6-7.2c-1.6-2.2-6.7-10.5-8.6-13.9c-0.4-0.6-0.5-1.6-0.3-2c0.4-1,2.1-1.8,3.3-1.4c0.5,0.1,2.9,3.4,5.4,7.3
	c4.2,6.5,8.5,13.1,19.7,30.6c2.3,3.6,4.2,7,4.2,7.6c0,0.7-1.5,2-5.3,4.5c-2.9,1.9-7,4.6-9,5.9c-5.7,3.8-11.8,7.5-12.9,7.9
	C176.6,112.7,175.8,111.7,172.6,107z M509,108.4c-1-0.7-4.8-3.1-8.4-5.3c-3.6-2.2-8.4-5.2-10.7-6.7s-4.4-2.8-4.6-2.9
	c-0.7-0.2,0.9-3.2,5.6-10.7c2-3.3,5.3-8.6,7.3-11.9c2-3.2,4.6-7.5,6-9.5c1.3-2,3.4-5.3,4.6-7.5c2.9-5,5-7.7,6.1-7.7
	c0.5,0,2.8,1.2,5.1,2.7c2.3,1.5,6,3.8,8.2,5.2c8.6,5.2,12.7,8,13.1,8.8c0.3,0.5,0.2,1.3-0.1,2.1c-1.3,2.8-4.6,1.6-14.4-5.1
	c-5.5-3.8-9.7-6-11-5.8c-0.7,0.1-1.7,1.1-2.7,2.6c-3.3,5.2-5.4,9.1-5.4,10c0,1,1.1,1.8,7,5.2c4.6,2.7,11.8,7.4,13.8,9
	c1.2,1,1.4,1.5,1.2,2.6c-0.8,3.1-3.2,2.4-12.7-3.8c-3-1.9-5.7-3.5-6.1-3.5c-0.7,0-8.3,11.3-10.5,15.6c-1.1,2.2-1.4,3.2-1,3.9
	c0.3,0.5,2.4,2,4.8,3.4c10,5.9,11,6.9,9.9,9.8C513.6,110.1,511.2,109.9,509,108.4L509,108.4z M213.8,86.6c-0.6-1.3-2.6-5.8-4.5-9.9
	c-1.9-4.1-3.8-8.4-4.1-9.5c-0.4-1.1-1.8-4.5-3.2-7.5c-6.5-13.7-8.9-20.2-8.2-21.6c0.3-0.5,0.8-1.1,1.2-1.2c0.4-0.1,3.6-1.4,7.1-2.8
	c3.5-1.4,9.2-3.9,12.6-5.5c3.4-1.6,6.9-3,7.8-3.2l1.6-0.3l2.9,6.4c1.6,3.5,4.5,10.1,6.5,14.6c2,4.5,5.6,12.8,8,18.5
	c2.4,5.6,4.4,10.6,4.4,11s-0.5,0.9-1.2,1.2c-0.6,0.2-3.4,1.5-6.1,2.8s-7.2,3.3-10,4.4c-2.8,1.1-6.7,2.8-8.7,3.7
	c-1.9,0.9-3.9,1.6-4.3,1.6C215.2,89.1,214.4,88,213.8,86.6z M233,76.3c3.8-1.9,6-3.3,6.1-3.9c0.1-0.5-0.3-2-1-3.3
	c-2.4-5.1-4.1-9-4.1-9.5c0-0.5-0.6-1.8-5.7-12.8c-1.6-3.5-3.4-7.7-3.9-9.2c-0.5-1.5-1.4-3.3-2-4.1l-1.1-1.3l-7.2,3
	c-11.3,4.7-13.1,5.5-13.6,6.5c-0.4,0.7,0.2,2.5,2.1,7c1.4,3.4,2.9,6.4,3.3,6.8c0.6,0.6,1.2,0.5,3.7-0.4c2.4-0.9,3.1-1,3.6-0.4
	c0.3,0.4,2.9,5.8,5.6,12c2.8,6.2,5.3,11.6,5.5,12C225.3,79.8,226.9,79.3,233,76.3z M438.3,73.6c-8-2.4-19.8-6.3-20.9-7
	c-0.3-0.2-0.5-0.9-0.5-1.6c0-1.9,4.1-14.5,5-15.4c1-1,3-1,3.8,0c0.7,0.9,0.6,1.7-1.1,7.9c-1,3.6-1,4.4-0.4,4.9
	c1,0.9,12.5,4.6,13.7,4.3c1-0.2,2.6-4.3,5.6-14c1.9-6.1,1.7-7.1-1.3-8c-5-1.6-15.8-5.3-16.4-5.7c-0.9-0.5,0.2-5.1,4-16.3
	c2.5-7.6,3.1-8.8,4.1-8.9c2.3-0.3,30.8,8.9,31.3,10.1c0.2,0.4-0.4,3.1-1.3,5.8c-1.6,5.2-2.4,6.1-4.6,5.4c-1.4-0.4-1.8-2.3-1-4.6
	c0.9-2.7,0.1-3.6-3.7-4.7c-1.8-0.5-6.3-1.9-10.1-3.2c-3.8-1.3-7.2-2.2-7.6-2c-1,0.4-1.4,1.4-3.3,8.3c-1,3.6-1.4,5.9-1.1,6.4
	c0.5,0.9,11.1,4.8,19.8,7.2c3.1,0.9,5.8,1.7,6.1,1.9c0.8,0.5,0.6,1.8-0.8,6c-0.7,2.1-2.5,8-3.9,13.1c-2.8,10-3.5,11.8-4.8,12.3
	C447.4,76.3,447.4,76.3,438.3,73.6L438.3,73.6z M257.5,64.2c-1.3-4-3.6-12-5.1-17.7c-1.5-5.7-3.8-13.6-5.1-17.7
	c-2.8-8.7-3-10.8-1-11.3c0.8-0.2,1.7-0.1,2.1,0.1c0.4,0.3,2,4.5,3.6,9.5c1.6,5,3.2,9.3,3.6,9.8c0.6,0.6,1.1,0.7,3.1,0.1
	c1.3-0.3,2.6-0.6,3-0.6c0.9,0,1.8,2.4,4.1,11.1c1,4,2.7,9.8,3.7,13.1c1,3.2,1.7,6.3,1.6,6.9c-0.1,0.8-1.1,1.4-4.5,2.5
	C259.7,72.4,260.2,72.7,257.5,64.2z M286.2,63.9c-0.7-0.5-1.8-6.3-5.5-31.5c-2.6-17.3-3.1-22.1-2.4-23c0.4-0.6,22.8-4.1,29.3-4.7
	c2.8-0.2,3.2-0.1,3.5,0.7c0.2,0.5,1,5.8,1.9,11.8c0.9,6,2.6,17.6,4,25.9c2.6,15.9,2.6,16.7,0.2,16.7c-2.3,0-2.9-1.5-4.3-10.3
	c-0.7-4.7-1.5-9.6-1.7-11c-0.2-1.4-0.7-3-1.2-3.6l-0.9-1.1l-6.4,0.9c-3.5,0.5-6.8,1.1-7.3,1.4c-1.2,0.7-1.2,2.1,0.4,12.6
	c2.1,13.7,2.1,13.4,0.9,14c-0.5,0.3-2.4,0.7-4.1,0.8c-1.7,0.2-3.7,0.4-4.4,0.6C287.4,64.2,286.5,64.1,286.2,63.9L286.2,63.9z
	 M298.6,28.3c5.4-0.9,9-1.8,9.5-2.3c0.7-0.7,0.7-1.5-0.1-7.1c-1.3-9.2-0.5-8.8-12.9-6.8c-5.5,0.9-10.4,1.9-10.9,2.3
	c-0.9,0.7-0.8,2.4,0.4,10.2c0.7,4.4,1.7,5.8,3.9,5.4C289.3,29.9,293.8,29.1,298.6,28.3L298.6,28.3z M393.8,62.7
	c-5.8-0.8-5.7-0.7-5.7-3c0-2.2,2.2-18.3,4.7-33.5c2.4-15,2.3-13.7,0.9-14.6c-0.7-0.4-3.2-1.1-5.6-1.4c-5.3-0.8-6.2-1.2-6.2-2.8
	c0-2.1,0.6-2.9,2-2.9c1.9,0,29.4,4,30,4.4c0.8,0.5,0.5,3.6-0.4,4.5c-0.9,0.8-1.3,0.8-4.9,0.1c-2.2-0.4-4.9-0.8-6-0.8
	c-2.5,0-2.6,0.1-3.8,8.4c-1.2,7.7-1.2,7.6,4.5,8.8c1.2,0.2,1.4,0.6,1.4,1.9c0,2.7-4.7,30-5.2,30.7C398.7,63.4,398.6,63.4,393.8,62.7
	L393.8,62.7z M362.5,58.1c-0.6-0.2-1.2-0.8-1.2-1.4c-0.1-3.7,0.1-28,0.4-36.2c0.4-13.5,1.6-12.3-12.4-12.4
	c-8.1-0.1-10.8,0.1-11.1,0.6c-0.6,1-1,14.1-0.4,15.1c0.4,0.7,1.1,0.9,3.3,0.9c2.2,0,2.9,0.2,3.2,0.9c0.2,0.5,0.3,7.8,0.1,16.3
	c-0.2,12.9-0.4,15.4-1.1,15.8c-0.4,0.3-3,0.5-5.8,0.5c-3.9,0-5.1-0.2-5.3-0.7c-0.2-0.4-0.1-12.8,0.2-27.6
	c0.4-22.1,0.6-26.9,1.2-27.3c0.9-0.6,31.4,0,32.6,0.6c0.8,0.4,0.9,1.8,0.6,19.1c-0.2,10.3-0.5,22.5-0.6,27.1
	c-0.3,7.8-0.4,8.5-1.4,8.8C364.1,58.4,363.1,58.3,362.5,58.1L362.5,58.1z"/>
</svg>
