<?xml version="1.0" encoding="utf-8"?>
<!-- Generator: Adobe Illustrator 26.5.0, SVG Export Plug-In . SVG Version: 6.00 Build 0)  -->
<svg version="1.1" id="Calque_1" xmlns="http://www.w3.org/2000/svg" xmlns:xlink="http://www.w3.org/1999/xlink" x="0px" y="0px"
	 viewBox="0 0 695 664" style="enable-background:new 0 0 695 664;" xml:space="preserve">
<style type="text/css">
	.st0{fill:#F8FC09;}
</style>
<path class="st0" d="M215.1,636.5c-3.4-1.7-3.2,0.2-3.2-51.4c0-52.5-0.2-50,3.7-51.5c1.8-0.7,6.5-0.8,38.2-0.8
	c26.2,0,36.7,0.2,38.2,0.6c1.1,0.3,2.6,1.3,3.3,2.1c1.2,1.5,1.3,1.6,1.3,12c0,9.8-0.1,10.5-1.1,11.8c-3.9,5-14.4,4.8-17.5-0.4
	c-0.7-1.1-1-2.6-1-4.6c0-4.8,1.5-4.5-22.7-4.5c-18.5,0-21.2,0.1-21.9,0.8c-0.7,0.7-0.8,2.4-0.8,10.3c0,7.9,0.1,9.6,0.8,10.3
	c0.6,0.6,1.9,0.8,5.7,0.8c3.1,0,5.5,0.3,6.7,0.8c3.3,1.4,3.3,1.7,3.3,26c0,19,0.1,21.7,0.8,22.4c0.7,0.7,2.7,0.8,13.6,0.8
	c15,0,14.4,0.2,14.4-4.9c0-3.8,1.2-6,4.1-7.7c4.1-2.4,12.9-0.7,14.7,2.8c0.9,1.8,1.1,20.5,0.2,22.2c-0.3,0.6-1.5,1.5-2.7,2
	c-2,0.9-3.9,1-39.3,1C220.9,637.3,216.6,637.2,215.1,636.5L215.1,636.5z M317.1,636.6c-3.4-1.5-3.3,1.2-3.3-51.5
	c0-51.8-0.1-49.8,2.8-51.2c1.6-0.8,3.7-0.8,4.1-0.1c0.3,0.5,2.3,0.7,2.3,0.2c0-0.1-0.6-1.2-1.3-2.2c-0.7-1.1-1.3-2.5-1.4-3.2
	c-0.2-2.9,0.2-4.5,1-4.8c0.7-0.3,0.8-0.1,0.5,0.8c-1,3.5-0.9,3.9,0.5,5.4c2.6,2.8,5,2.5,5.6-0.8c0.1-0.8,0.5-2.4,0.8-3.6
	c0.7-2.9,0-4.2-2.2-4.2c-0.9,0-1.4-0.2-1.1-0.4s1-1.1,1.4-2c1.2-2.3,3.8-5.2,5.5-6.1c1.5-0.8,1.7-1.2,2.2-4.4
	c0.2-1.3,1.3-2.9,3.9-5.7c2-2.1,3.6-4.1,3.7-4.4c0-0.3,0.1-3.4,0.1-7c0-5.9,0.2-6.7,1.5-9.3c1.7-3.4,1.7-4,0.5-6.5
	c-2.2-4.5-2.8-7.6-2.2-12.1c0.3-2.3,0.8-5.5,1.2-7.1l0.6-2.9l-1.9-2.4c-2.6-3.4-3.1-5.4-2.8-10c0.6-7.4,1.8-16,2.6-17.4
	c1-1.9,3.7-4.4,5.9-5.5c0.9-0.5,1.7-1,1.7-1.2c0-0.2,0.2-1.9,0.5-3.7c0.7-4.2,3.2-8.9,5.8-11c4.8-3.8,6.7-6,9.3-10.6
	c3.5-6.3,4.6-6.9,10.3-6.8c6.8,0.2,9.6,0.2,13.8-0.2c5.1-0.5,8.1,0.3,11.5,2.9c3,2.2,3.6,2.2,5.5-0.3c1.9-2.5,4.5-3.5,9.1-3.7
	c2.1,0,4,0.1,4.1,0.3c0.8,1.1,5.4,4.1,6.3,4.1c1,0,1-0.2,0.7-2.4c-0.6-4.2-1.2-4.6-3.7-3c-1.1,0.7-1.6,0.8-3.3,0.2
	c-1.1-0.3-2.2-0.8-2.3-1.1c-0.4-0.7,1.4-2.1,5.2-4.2c1.7-0.9,3.2-1.9,3.4-2.2c0.2-0.3,0.6-1.8,0.9-3.4c0.9-4.5,3.1-7.8,6.3-9.6
	c2.5-1.3,3.2-1.5,7.7-1.5c7.6,0,15.2,2.5,25.3,8.1c8.8,5,11.8,8.6,11.8,14.3c0,3.1,0.8,4.5,2.6,4.5c3.7,0,3.8-8.3,0.3-13.8
	c-2.8-4.4-9.3-9.4-18.1-14c-3.4-1.8-6.2-3.2-6.3-3.3c-0.1,0,0.2-2.3,0.6-4.9c1.4-9.2,0.8-17.4-2.1-27.6c-4.7-16.9-13.1-31.4-25.8-45
	c-4.6-4.8-6.4-5.5-6-2.2c0.1,0.4,1.7,2.4,3.5,4.4c7.8,8.2,15.8,21.7,19.3,32.5c3.8,11.6,4.4,26,1.5,36.3l-0.9,3.2l-1.8-0.4
	c-1-0.2-3-0.5-4.4-0.7c-2.5-0.3-2.6-0.4-3-2.4c-2.4-11-6.9-25.3-10.9-34.6c-1.5-3.4-5.8-12.4-9.5-19.8
	c-12.4-24.8-23.4-52.8-30.4-77.1c-0.6-2.2-1.3-3.7-1.7-3.7c-0.4,0-1.4,0.9-2.3,2.1c-2.7,3.4-10.3,8-16.4,10
	c-1.5,0.5-4.7,2.1-7.2,3.7c-10.4,6.5-15.9,8.7-22.8,9.2c-9,0.8-15.9-1.9-24.6-9.4c-5-4.3-10.7-8.3-11.9-8.3c-0.7,0-1.4,2.8-2.1,8.7
	c-2.2,17.3-8.8,36.3-25,71.2c-9.5,20.6-12.7,28.9-15.7,41.2c-2,8.1-4.1,21.5-4.1,25.9c0,1.5-0.7,0.7-2.7-3.3
	c-3.2-6.5-4.5-10.9-5-17.9c-0.8-9.8,1.1-22,4.9-32.2c1.1-2.8,4.5-10.3,7.6-16.5c7.1-14.3,7.8-16.2,5.8-16.2
	c-1.4,0-14.2,23.1-18.1,32.8c-9.2,22.7-10.5,39.4-4,53.8c4,8.8,10.2,15.1,23.6,24.2c5.1,3.4,11.2,7.8,13.5,9.6
	c11.4,9.1,19.3,19.5,21.5,27.9c1.2,4.4,1,6.8-0.6,10c-1.1,2.2-1.9,3-3.8,4c-1.3,0.7-3.4,1.3-4.6,1.5c-3.5,0.4-4.6,0.7-4.6,1.3
	c0,0.5,1.8,3,11.1,15.5c5,6.7,24.4,14,40.3,15.1c4.1,0.3,4.7,0.5,4.5,1.2c-0.5,1.3-1.3,5.1-1.9,9.4c-0.7,4.4-0.3,4.1-6,4.8
	c-1.6,0.2-7.1,1.1-12.2,2.1c-5.2,1-11.3,1.9-13.7,2.1c-2.4,0.2-4.6,0.5-5.1,0.8c-0.4,0.2-1.7,2-2.8,3.9
	c-6.1,10.4-19.4,15.6-36.1,14.2c-10.5-0.9-18.9-3.5-32.1-9.7c-9.6-4.6-16-6.1-35-8.6c-15.8-2.1-20.2-2.9-24.5-5
	c-4.3-2-6.5-4-8.3-7.5c-1.5-2.9-1.5-3.3-1.5-9.7c0-5.7,0.2-7.3,1.4-11.1c3.4-10.9,3.3-9.3,1.6-22.9c-1.4-10.9-1.4-12.5-0.9-15.8
	c0.7-4.4,3-8.9,5.9-11.8c2.4-2.4,8.4-5.6,14.4-7.6c9.2-3.2,10.8-4.4,17.8-13.4c3-3.9,6.1-7.9,7-9l1.6-2l-0.1-9.6
	c-0.2-20.1,3.9-35.8,15.6-59.4c9.6-19.4,21.5-37.4,37.6-57.2c15.4-19,23.3-43.9,21.9-69.3c-2-35.1-2.1-31.7,1.5-33.9
	c2.8-1.7,8.8-6.3,14.3-10.9c7.2-6.1,16.7-12.5,24.5-16.4c14-7,25-9.6,43-10.1c11.3-0.3,20.5,0.3,30.4,2c3.4,0.6,7.1,1.1,8.2,1.2
	c2.3,0.2,2.5,0.5,4.4,6.7c2.2,7.5,4.1,19.2,4.9,30.9c0.2,2.6,0.4,13.8,0.5,25c0.1,18.4,0.3,20.8,1.2,25.4
	c2.2,10.4,6.2,19.6,12.9,29.5c4,6,12.3,16.9,16.7,22.1c4.9,5.7,13.7,17.5,18.7,25c11.4,17.2,19.7,34.6,23.5,49.2
	c2.9,11,3.3,14.5,3.3,27.3c0,12.3-0.5,16.4-2.8,24.4c-0.5,1.8-0.8,3.6-0.7,4c0.1,0.4,1.5,1.4,3.1,2.3c6.4,3.6,9.1,8.1,12.1,20
	c3.5,14,4.1,15.2,8.6,20.8c8.4,10.4,10.5,14.5,10.8,21.4c0.2,4.1,0,5.1-1,7.2c-2.6,5.4-7,8.6-23.7,16.9
	c-10.8,5.4-14.4,7.5-19.8,11.3c-2.2,1.6-4.1,2.9-4.2,2.9c-0.7,0,0.6-4.6,1.6-5.7c0.7-0.7,1.2-1.6,1.2-1.8c0-0.8,9.8-6.4,20.1-11.5
	c11.1-5.4,14.8-7.7,18.1-11.1c2.8-2.9,3.8-5.7,3.3-9c-0.6-3.6-4.1-9.7-8.8-15.5c-5.1-6.2-7.6-10.9-8.8-16.4
	c-1.5-6.9-3.8-14.6-5.4-17.9c-3.2-6.7-9.3-10.1-18-10.2l-4.9,0l-2.8,2.5c-3.6,3.2-8,6.3-11.6,7.9c-1.6,0.8-2.8,1.6-2.7,2
	c0.1,0.4,1.3,1.5,2.7,2.4c1.9,1.2,3,2.5,4,4.6l1.4,2.8l-0.1,10.8l-0.1,10.8l1.5,1.2c0.8,0.6,4.3,2.6,7.8,4.3c8,4,9.1,5.1,8.8,9.5
	c-0.1,1.9,0.2,4.5,0.8,6.7l1,3.5l-1.4,2.6c-0.9,1.7-1.4,3.7-1.6,5.7c-0.2,3.2-1.2,5.8-2.9,8c-0.6,0.7-1.2,2.6-1.5,4.1
	c-0.3,2.2-0.8,3.1-2,4.1c-1.3,1.1-1.6,1.8-1.9,4.3c-0.3,2.6-0.6,3.3-2.3,4.9c-1.1,1-2.3,2.5-2.8,3.3c-0.5,0.8-1.3,1.4-1.7,1.4
	c-1.9,0-4.1,1.3-5.6,3.3c-1.4,1.8-1.8,2.1-3.3,2c-1.2-0.1-2.1,0.2-2.9,0.9c-3,2.8-5.8,2.2-16.7-4.1c-4.4-2.5-10.4-5.9-13.4-7.5
	c-3-1.6-6.9-3.8-8.8-4.9c-3.5-2-8.9-4.6-9.5-4.6c-0.2,0-1.2-0.6-2.3-1.3c-2.7-1.8-4-1.7-5.3,0.5c-1.3,2.2-3.3,3.3-5.8,3.3
	c-1.5,0-2-0.3-2.9-1.7c-0.6-0.9-1-2.3-1-3l0-1.3l0.5,1.3c0.9,2.2,2.1,3.1,3.9,3.1c3.2,0,4.9-3,4.3-7.6c-0.1-1.1-3.7-6-6.5-8.9
	c-1.5-1.6-3.3-4-4.1-5.5c-1.5-2.9-3.1-4.4-4.4-3.9c-0.8,0.3-0.8,0.2,0-0.9c0.5-0.7,1-2,1.2-2.9c0.4-1.9,0.7-2,1.6-0.8
	c0.8,1.1,3.4,1.1,4.2-0.1c1-1.3,0.8-4.2-0.4-6.9c-1.7-3.7-1.8-6.1-0.5-10.5c1.4-4.6,3-6.6,2.4-3c-0.3,1.9-0.2,2.4,1.1,3.8
	c0.9,1,2.1,1.7,3.3,1.9c1.7,0.3,2.1,0.1,3.4-1.3c2.1-2.2,2.4-4.6,1.3-10.6c-0.9-5.3-0.7-9.7,0.5-13.8c0.3-1.2,0.5-2.7,0.3-3.4
	c-0.7-2.5-0.4-2.6,1.7-0.5c2.3,2.2,6.5,4.7,9.6,5.7c1,0.3,2.1,0.8,2.4,1.1c0.6,0.5,3.1,0.6,4.8,0.1c1-0.3,1.2-0.7,1.2-2.6
	c0-1.6-0.2-2.3-0.7-2.3c-0.4,0-1.7-0.4-3-1c-1.2-0.5-3.3-1.1-4.6-1.3c-1.5-0.2-3-0.9-4.3-2c-1.8-1.6-2-1.9-2.2-4.9
	c-0.3-3.8,0.9-7.4,2.7-8.6c0.7-0.4,2.4-0.9,3.9-1.1c2.5-0.2,3.2-0.1,8.4,2.6c3.6,1.8,6.4,3.6,7.7,4.9c2.9,3,1.6,2.7-6.1-1.2
	c-7.6-3.9-9.3-4.2-11.7-1.8c-1.2,1.2-1.5,2-1.5,3.5c0,2.5,0.8,3.2,5.6,5.1c5,1.9,8.4,4.9,9.4,8.2c0.5,1.8,1.2,2.7,2.5,3.5
	c3.1,1.9,17.1,8.5,18,8.5c0.5,0,1.5-0.6,2.1-1.4c1-1.2,1.1-1.9,0.9-4.8c-0.1-2-0.7-4.2-1.3-5.4c-1.1-2.2-4.5-5.6-6.6-6.5
	c-0.7-0.3-1.2-0.9-1-1.2c0.1-0.4,0-0.8-0.2-1c-0.3-0.2-0.5-0.1-0.5,0.2c0,0.3-0.3,0.5-0.8,0.5c-0.4,0-0.8-0.2-0.8-0.6
	c0-0.3-1.6-2.1-3.5-4c-2.4-2.3-4.1-4.6-5.4-7c-1.1-2.1-2.3-3.8-3-4.2c-0.7-0.3-2.4-1.2-3.8-2c-4.3-2.5-10.2-3.2-13.6-1.8
	c-2.3,1-5.4,5.9-6.7,10.9l-0.5,1.8l-0.5-2.1c-0.3-1.1-0.8-3.2-1.1-4.6c-1.2-5.3-5.3-9-9.8-9c-1.2,0-3.6,0.5-5.3,1.1
	c-2.8,1-3.1,1.1-5.1,0.3c-4.6-1.8-9.6-0.5-12.3,3.3c-0.9,1.2-1.6,2.5-1.6,2.8c0,1.5-4.3,7.1-7.2,9.4c-2.6,2.1-3.5,3.2-5.2,6.8
	c-1.5,3-2.2,5.2-2.4,7.4c-0.3,3.1-0.3,3.1-3,4.9c-3.1,2-6.2,5.6-6.9,7.9c-0.4,1.3-0.3,1.8,0.4,2.5c0.9,0.8,0.8,1.1-0.3,4.6
	c-2,6.4-1.5,9.5,2.3,13.6c2.7,2.9,3,4.3,1.6,7c-2.7,5.3-3.4,12.6-1.5,16.9c0.6,1.4,1.5,3.1,2,3.8c0.9,1.3,0.9,1.3-0.7,4.5
	c-2.5,5-2.5,10,0,17.2l0.8,2.4l-1.7,3c-1.5,2.7-1.7,3.4-1.7,7v4l-1.6-0.5c-2.8-0.8-5.5-0.5-7.3,0.7c-2.7,1.8-3.5,4.3-2,6.4
	c0.7,1,0.6,1.3-0.4,3.3c-1,2.1-1.1,3.1-1.2,11c0,4.8-0.2,9.8-0.5,11.2c-0.4,2.2-0.3,2.5,0.9,3.7c2.2,2.2,5.1,1.4,6.8-1.8
	c1.5-2.9,0.9-5.8-1.6-8.9c-2.3-2.8-1.3-10.4,2-15.4c1.1-1.6,1.3-1.7,3.5-1.6c1.3,0.1,4.4-0.3,6.9-0.9c2.5-0.6,4.6-1.1,4.6-1.1
	c0.1,0-0.1,1-0.3,2.1c-0.5,2.4,0.2,7.2,1.4,9c1.1,1.7,0.9,3.8-0.8,8.4c-1.6,4.4-1.9,7.1-1,9.7c0.7,2.1,1.8,2.6,5,2.6
	c4.7,0,5.9-3.4,3.8-10.1c-1.1-3.6-1-4.9,1.5-12c1.8-5.3,2-9,0.3-10.8c-0.7-0.8-0.8-1.2-0.3-2.3c1.2-3.1-1.4-6.4-5.4-6.9
	c-1.3-0.1-2.4-0.4-2.4-0.5c0-0.1,0.8-1,1.8-2.1c1.8-1.8,1.8-2,1.7-4.9c-0.2-3-0.1-3,1.2-3c1.5,0,3.6-1.9,3.6-3.2
	c0-0.5,0.2-1,0.5-1.2c0.3-0.2,0.5,0.6,0.5,2c0,1.8-0.3,2.5-1.1,3.1c-0.6,0.4-1.9,2.3-2.8,4.2c-2,3.9-1.8,4.4,1.1,5.4
	c2.3,0.8,3.8,3,3.8,5.5c0,1.1,0.2,3.3,0.5,5c0.6,3.6,0.1,6.4-1.9,10.8c-1.2,2.6-1.3,3.5-1.1,6.4c0.2,1.9,0.8,4.9,1.4,6.8
	c0.9,2.9,1,3.8,0.5,6c-0.7,3.1-1.8,4-5.9,4.8c-2.6,0.5-3,0.4-5.1-0.8c-1.3-0.7-2.5-1.8-2.8-2.3c-0.8-1.5-0.6-6.7,0.5-11.2
	c1.7-7.2,1.7-7.5-0.2-10.5c-1-1.5-2-2.9-2.4-3.1c-0.4-0.2-2.9-0.4-5.6-0.4c-5.9,0-6.4,0.3-6.9,4.3c-0.4,3.3,0.2,5.5,2.5,9.3
	c1.9,3.1,2.1,5.7,0.4,9.1c-1.3,2.6-2.8,3.6-5.8,3.6c-2.2,0-2.7,0.9-1.3,2.1c0.6,0.5,0.8,2,0.8,7.2c0,5.3,0.2,6.8,0.8,7.4
	c0.7,0.7,4,0.8,28.4,0.8c26.7,0,27.6,0,29.6,1.1c2.7,1.4,4.1,3.7,4.1,6.9c0,3.3-1.3,5.5-4.1,6.9c-2,1-3,1.1-21.1,1.1
	c-16.6,0-19.2,0.1-19.9,0.8c-0.7,0.7-0.8,2.9-0.8,16.2s0.1,15.5,0.8,16.2c0.7,0.7,3.2,0.8,19.7,0.8c17.5,0,19.1,0.1,21.1,1
	c5.7,2.6,5.8,10.5,0.2,13.4c-2,1-2.8,1.1-37.5,1C325.2,637.3,318.5,637.2,317.1,636.6L317.1,636.6z M329,551.2
	c-0.5-2.7-0.4-4.5,0.1-7.8c0.4-2.3,0.3-2.5-0.6-2.3c-3,0.6-2.9,12.3,0.1,12.3C329.2,553.4,329.3,552.9,329,551.2L329,551.2z
	 M329.6,539.5c0.2-0.3-0.2-1.5-0.8-2.9c-1.1-2.4-2.8-3.6-4.3-3.1c-1.2,0.5-0.9,1.4,0.8,2.7c0.9,0.6,1.8,1.7,2.1,2.4
	C328,540,329,540.4,329.6,539.5L329.6,539.5z M282.2,510.6c9.5-3.4,14.8-8.7,17.3-17.8c3.3-11.8-0.3-20-19.5-44.1
	c-10.2-12.8-12.1-15.8-18.8-29.4c-12.6-25.6-21.4-35.3-33.9-37.3c-2.5-0.4-7.3,0.9-10,2.8c-2.6,1.8-6.6,6.2-11.2,12.7
	c-5.9,8-8.8,10.2-18.9,13.8c-8.5,3.1-10.5,4.2-13.3,7.1c-4.8,5.2-5.7,10.5-3.9,22.7c1.4,9,1.4,16.4,0.1,20.4
	c-2.1,6.5-2.6,8.3-3.1,12c-0.9,6.1,0.3,10.1,4,13.5c3.4,3.1,9.6,5,21,6.3c12.5,1.5,15.4,1.9,22.2,3.1c8.1,1.5,12.1,2.9,21.5,7.3
	c14.1,6.6,24,9,35.1,8.7C276.8,512.3,278.1,512.1,282.2,510.6z M340.9,511.3c0.4-0.4,0.8-1.4,0.8-2.2c0-0.8,0.2-2.2,0.5-3.2
	c1.2-4.2-0.9-4.7-4.3-1.1c-2.9,3.1-3.1,4.7-0.7,6.2C339.2,512.3,339.9,512.4,340.9,511.3z M453.8,504c0.7-0.8,1.3-1.6,1.3-1.8
	c0-0.2,0.9-0.3,2.1-0.1c1.8,0.3,2.1,0.2,2.4-0.7c0.1-0.6,0.7-1.2,1.3-1.3s1.1-0.7,1.3-1.3c0.2-0.8,0.7-1.1,1.7-1.1
	c1.5,0,2.7-1,2.5-2.1c-0.1-0.5,0.4-0.8,1.5-0.9c1.3-0.1,1.7-0.4,2-1.5c0.2-0.8,0.7-1.7,1.1-2c1.3-1.1,2.2-4.2,1.5-5.6
	c-0.3-0.7-0.7-1.2-0.9-1.2c-0.2,0-1.2-1.4-2.2-3.1c-1-1.7-1.7-3.1-1.5-3.1c0.2,0,1.7,0.8,3.2,1.8c3.2,2,4.9,2.3,5.6,0.9
	c0.8-1.5,0.1-2.9-2.1-4.2c-1.8-1-2-1.3-1.5-2.2c0.5-1,0.6-1,1.5,0.5c1.1,1.9,1.5,2,2.8,0.6c0.6-0.7,0.8-1.5,0.7-2.6
	c-0.2-1.1,0-1.5,0.4-1.4c1.1,0.4,2-0.6,2.6-3.1c0.5-2,0.5-2.8-0.1-4.2c-0.9-2.1-0.9-2,0.3-2.3c1.1-0.3,1.4-2.1,0.5-2.7
	c-0.3-0.2-0.4-0.8-0.3-1.4c0.5-1.8-1-4.5-3-5.3c-1.3-0.6-1.7-1-1.5-1.7c0.2-0.7,0.6-0.9,1.7-0.7c1.6,0.2,2.8-0.9,2.3-2.1
	c-0.3-0.9-3.5-2.9-7.5-4.9l-2.4-1.2l-2,1.1c-1.1,0.6-2.1,1-2.3,1s-0.7-1.1-1.2-2.5c-0.6-1.9-1.2-2.7-2.3-3.1
	c-1.7-0.7-1.7-1.4-0.2-7.5c1.3-5.3,1.4-8.5,0.5-12.1c-2.1-8.2-7.4-12.8-13.8-12.1c-5.1,0.6-5.6,1.2-2.7,3.5c1,0.8,1.7,1.7,1.5,2.1
	c-0.1,0.4,0.5,2,1.4,3.7c1.4,2.6,1.6,3.5,1.4,6c-0.2,2.6-0.5,3.2-2.4,5.3c-1.2,1.3-2.2,2.7-2.2,3.1c0,0.6-0.2,0.7-0.9,0.3
	c-5.6-3-12.8-6.2-13.8-6.2c-1.7,0-2.1,0.9-1,2.1c1.4,1.3,13.9,7.7,15.1,7.7c0.6,0,1-0.3,1-0.8c0-1.2,0.5-1,3.1,1.5
	c1.7,1.6,3.2,2.5,5,2.9c2.1,0.5,2.6,0.8,2.4,1.6c-0.2,0.7,0.5,1.6,2.1,3.2c1.3,1.2,2.4,2.6,2.4,3.1c0,1.4,1.3,1.9-12.4-5.5
	c-6.8-3.7-12.8-6.8-24-12.7c-2.6-1.3-3.8-1-3.8,1c0,1.9,1.9,3.3,12.1,8.8c9.5,5.1,10.9,6,10.1,6.8c-1.4,1.4,0.4,5.5,3.5,7.5
	c2,1.3,6.6,3.8,11.4,6.1c2.8,1.3,2.8,1.3,2.5,3.4c-0.3,2.7-3.5,10-4.6,10.7c-1.6,1-3.1,0.2-28.8-14c-6.4-3.5-13.9-7.7-16.7-9.2
	c-2.8-1.5-5.4-3-5.7-3.2c-0.3-0.2-1.8-1.1-3.4-2c-3.4-1.9-7.1-2.5-8.4-1.5c-1.7,1.2-0.6,2.6,4.2,5.4c2.5,1.4,6.6,3.8,9.1,5.3
	c2.6,1.5,5.1,2.9,5.7,3.1c0.6,0.2,2.7,1.4,4.8,2.7c2.6,1.6,3.5,2.4,3,2.6c-1.1,0.4-1,2.1,0.4,3.5c0.7,0.7,2.9,2.3,5,3.5
	c2.1,1.2,4.5,2.7,5.3,3.2c0.8,0.6,4.9,3,9,5.4c4.1,2.4,7.9,4.7,8.2,5c0.6,0.6,0.3,1.1-1.5,3.1c-2.9,3.1-4.4,3.9-7.9,3.9
	c-2.2,0-4.3-0.6-8.9-2.4c-3.3-1.3-6.8-2.9-7.8-3.5c-1-0.6-5-2.8-8.8-4.8c-9.1-4.8-11.9-6.3-13-7.2c-1.4-1.2-2.5-0.4-2.5,1.6
	c0,1,0.3,2,0.6,2.2c0.4,0.2,1,1,1.3,1.8c0.4,0.8,1.8,1.9,3.6,2.7c1.6,0.7,5.9,3.1,9.6,5.2c7.5,4.3,12.8,6.7,20.5,9.1
	c4.8,1.5,5.4,1.6,8.3,1.1c1.7-0.3,3.6-0.7,4-0.9c0.6-0.2,0.9-0.1,0.9,0.4c0,0.8-3,1.4-7,1.4c-1.5,0-2.4,0.2-2.6,0.8
	c-0.4,1.1,0.6,2.1,4.3,4.2c2.7,1.5,3.4,1.7,4.3,1.2c0.9-0.5,1.4-0.4,2.6,0.5c0.8,0.6,1.5,1.4,1.5,1.8c0,0.6,0.7,1.1,1.7,1.3
	C452.3,505.4,453.1,504.8,453.8,504L453.8,504z M461.4,477.2c-0.5-0.3-0.5-0.5,0.2-0.8c1-0.4,1.9,0.1,1.5,0.7
	C462.7,477.7,462.3,477.7,461.4,477.2L461.4,477.2z M472.6,471c0-0.3-0.7-1.2-1.5-2.1c-1.7-1.8-1.2-2.1,1.3-0.5
	c1.9,1.2,1.9,1.1,1.4,2.2C473.5,471.5,472.6,471.7,472.6,471z M472.4,463.9c-1.4-0.7-2.4-1.2-2.3-1.2c0.8-0.1,5.1,1.7,5.1,2.1
	c0,0.3-0.1,0.4-0.1,0.4C475,465.2,473.8,464.6,472.4,463.9z M469.3,458c0.2-0.3,0.8-0.5,1.4-0.5c0.9,0,1,0.1,0.4,0.5
	C470,458.7,468.9,458.7,469.3,458z M472.6,453.4c0-0.3,0.4-0.5,0.8-0.5c0.4,0,0.7,0.2,0.5,0.5c-0.2,0.3-0.5,0.5-0.8,0.5
	S472.6,453.7,472.6,453.4z M469.5,448.4c0-0.9,1.1-1.3,2.6-1.1c1,0.1,0.9,0.3-0.7,1C469.8,449,469.5,449,469.5,448.4z M455.3,433.3
	c0.2-0.3,0.5-0.4,0.8-0.2c0.7,0.4,0.6,0.8-0.3,0.8C455.4,433.8,455.2,433.6,455.3,433.3L455.3,433.3z M453.6,429
	c0.1-0.1,0.8-0.5,1.5-0.9c1.2-0.6,1.2-0.6,0.6,0.2c-0.4,0.5-1.1,0.9-1.5,0.9C453.7,429.2,453.5,429.1,453.6,429z M458.2,423.4
	c0.3-0.9,0.5-2.5,0.5-3.5c0-1.4,0.1-1.6,0.5-1c0.3,0.4,0.5,2,0.5,3.5c0,2.3-0.1,2.7-1,2.7C457.9,425,457.8,424.8,458.2,423.4z
	 M443,407.5c-0.2-0.3-0.5-0.4-0.8-0.2c-0.3,0.2-0.4,0.5-0.2,0.8c0.2,0.3,0.5,0.4,0.8,0.2C443,408.1,443.1,407.7,443,407.5z
	 M448.4,397.9c4.8-1.4,8.6-3.7,12.6-7.5c3.2-3,4-4.1,4.7-6.4c0.8-2.4,0.8-3,0.2-4.7c-1.9-5.3-9.4-10.5-19.5-13.7
	c-6.8-2.1-10.6-1.7-14.1,1.6c-5.8,5.6-3.8,21.5,3.5,27.9C439.8,398.7,443.3,399.4,448.4,397.9z M340.8,237c4.3-1.1,8.4-3,13.9-6.5
	c3.9-2.5,9.2-5.1,14-6.9c1.6-0.6,4.3-2,5.9-3.2c6-4.1,9.3-8.1,10.7-12.8c0.7-2.5,0.7-3.1,0-5.5c-0.6-2.1-1.4-3.2-3.8-5.4
	c-3.1-2.9-4.3-3.5-16.6-8c-3-1.1-7.7-3.3-10.3-4.9c-7.8-4.6-13-6.4-19.2-6.9c-7.5-0.5-15.2,2.4-21.6,8.2c-1.9,1.8-7,5.9-11.3,9.1
	c-10.3,7.8-11.4,9.9-9.1,16.2c1.4,3.7,6,8.4,12.1,12.4c2.6,1.7,6.6,4.8,9.1,6.9c2.4,2.1,5.6,4.5,7,5.3
	C327,238,333.9,238.7,340.8,237L340.8,237z M322.5,222.7c-5.8-1.4-12.8-5.7-20.3-12.4c-2.7-2.4-3.8-3.7-3.8-4.6
	c0-0.7,0.2-1.3,0.5-1.3c0.3,0,2.4,1.8,4.8,3.9c8.9,8.1,14.3,11.3,22.1,12.9c3.8,0.8,5,0.8,8.6,0.3c4.6-0.7,11.5-2.9,16.2-5.3
	c1.6-0.8,6.1-3.4,10-5.7c7.5-4.4,12.8-7.2,14-7.2c0.4,0,0.6,0.4,0.5,1.1c-0.1,0.7-0.9,1.4-2.5,2c-1.3,0.5-5.5,2.8-9.5,5.1
	c-16.3,9.6-22.7,11.9-32.7,11.9C327.7,223.5,324.1,223.1,322.5,222.7z M304.9,189.3l2-1.8l-0.9-1.5c-2.4-3.8-3.1-6.1-3.3-10.7
	c-0.3-5.5,0.5-8.6,2.5-10.6c1.6-1.6,3.2-1.8,5.4-0.8c2,0.9,4.3,5.8,4.7,9.8c0.4,4.6,0.7,5.5,1.5,5.5c1.4,0,8.6-3.8,9.1-4.7
	c0.7-1.2,0.2-6.6-1.1-11.6c-2.5-9.7-9.2-17.1-15.6-17.2c-3.5,0-6,1.1-8.8,3.9c-6.4,6.2-9,17.7-6.4,27.9c1.9,7.4,5.5,13.6,7.9,13.6
	C302.4,191.1,303.8,190.3,304.9,189.3L304.9,189.3z M380,189.2c8.2-11.9,7-30.8-2.7-40.8c-3.5-3.6-6.5-5.4-10.8-6.5
	c-5.9-1.5-11.3,0.2-16.8,5.5c-5.7,5.5-8.8,12.2-9.4,21c-0.4,5.8,0.1,6.9,3.3,7.9c1.4,0.4,3.6,1.2,4.9,1.7c1.3,0.5,2.6,0.7,2.8,0.5
	c0.2-0.2,0.6-2.7,0.7-5.4c0.5-8.5,4.1-13.5,9.7-13.5c2.6,0,4.8,1.7,6.7,5.3c1.3,2.5,1.4,3.1,1.4,9.1c0,6-0.1,6.6-1.4,9.2
	c-0.8,1.5-1.4,3-1.3,3.3c0.2,0.6,9.4,4.4,10.8,4.5C378.3,191.1,379.3,190.2,380,189.2L380,189.2z M421.2,636.3
	c-0.9-0.5-1.9-1.5-2.2-2c-0.4-0.7-0.5-16.1-0.5-48.9c0-47.8,0-47.9,1.1-49.3c2.8-3.5,9.2-4.5,14.2-2.2c4.3,2,4.3,1.9,4.3,20.1
	c0,12.9,0.1,15.8,0.7,16.4c0.5,0.5,2.5,0.9,6,1.1c6,0.4,7.9,1.1,8.7,3.5c0.4,1.1,0.6,10.4,0.6,29.4c0,30.5,0,30.5-3,32.1
	c-1.3,0.7-3.8,0.8-14.9,0.8C423.9,637.3,422.8,637.3,421.2,636.3L421.2,636.3z M344.1,546.4c0.3-2.1,0.2-2.4-1.8-4.5
	c-1.5-1.5-2.4-3.1-3-5.1c-0.5-1.6-0.9-3.1-1.1-3.5c-0.2-0.5,1.1-0.6,5.4-0.6h5.7l0.3,1.5c0.2,0.8,0,3.5-0.5,6.1
	c-0.5,2.5-1,5.4-1.1,6.5c-0.3,1.8-0.4,1.9-2.3,1.9h-2L344.1,546.4z M366.7,548.3c0.2-0.2-0.2-2.1-0.7-4.1c-1.1-4.1-1-7.3,0.6-9.9
	l1-1.6l11,0c9.7,0,11.2,0.1,13.1,1c3.2,1.4,4.4,3.6,4.1,7.6c-0.2,3.6-1,4.8-4.1,6.4c-1.7,0.9-3.1,1-13.6,1
	C371.6,548.7,366.5,548.5,366.7,548.3L366.7,548.3z M417.2,521.2c-3.7-0.9-9-3.5-12.3-5.9c-4-3-7.2-7.1-10.2-13.3
	c-1.4-2.9-2.6-5.3-2.7-5.3c0,0-3.3-0.1-7.3-0.3c-4-0.1-9.6-0.6-12.6-1c-6.1-0.8-7.5-1.7-4.2-2.8c1.2-0.4,2.5-1.4,3.2-2.3
	c1.1-1.5,1.2-2.2,1.1-7.9c0-3.5,0.1-6.3,0.4-6.3c0.3,0,1.1-0.5,2-1.1c2.1-1.5,6.4-1.1,9.7,1l2.4,1.5l0,3.7
	c0.1,6.9,2.4,10.5,7.1,10.9l2.8,0.2l0.3,2.5c0.9,6.5,8.2,16.1,15.2,19.8c4.7,2.5,10.4,3.6,15.9,3.2c6.4-0.5,16.3-4,21.5-7.5
	c0.9-0.6,2.3-1.1,3.1-1.1c1,0,2.3-0.6,3.5-1.5c1.2-0.9,2.6-1.5,3.5-1.5c1.1,0,2.1-0.6,3.9-2.4c1.6-1.6,2.4-2.2,2.6-1.7
	c0.3,1-6.5,7.3-11.5,10.6c-7.4,4.9-14.5,8-21,9C429.5,522.1,420.4,522,417.2,521.2L417.2,521.2z M361.5,491.3c-0.9-2.1-1-7-0.2-7
	c0.3,0,1.2,0.7,2,1.5c1.7,1.8,3.7,2,5.2,0.5c1-1,1-1.4,0.7-4.5c-0.2-1.9-0.6-3.8-0.8-4.3c-1.2-2.3-0.3-6.1,1.4-6.1
	c0.5,0,0.3,0.6-0.4,2c-0.8,1.7-0.9,2.4-0.5,3.7c1.1,3.5,1.3,7.9,0.3,9.6c-0.8,1.6-1,1.7-3.3,1.6c-3.9-0.2-3.8-0.2-3.6,2.3
	c0.1,1.3,0.1,2.3,0,2.3C362.4,493.1,361.9,492.3,361.5,491.3L361.5,491.3z M391.3,480.2c0-0.7,0.1-1,0.3-0.6c0.1,0.4,0.1,0.9,0,1.3
	C391.4,481.2,391.3,480.9,391.3,480.2z M390.7,476.2c-0.2-2.4-4.6-5.6-9.9-7.3l-1.3-0.4l1.4,0c3.1-0.1,10.5,5.5,10,7.5
	C390.9,476.4,390.8,476.5,390.7,476.2L390.7,476.2z M372.2,470.4c0.1-0.4,0.5-0.8,0.9-0.9c0.4-0.1,0.6,0.1,0.5,0.5
	c-0.1,0.4-0.5,0.8-0.9,0.9C372.3,470.9,372.1,470.7,372.2,470.4z M377.1,468.5c0.4-0.1,0.9-0.1,1.3,0c0.4,0.1,0.1,0.3-0.6,0.3
	C377.1,468.8,376.8,468.6,377.1,468.5z M368,434.6c-1.7-1-1.1-1,1.1,0c1,0.4,1.4,0.8,1,0.8C369.6,435.3,368.7,435,368,434.6
	L368,434.6z M362.8,433.8c0.4-0.3,1.2-0.5,1.8-0.5l1,0l-1,0.4c-0.6,0.2-1.4,0.5-1.8,0.5C362.2,434.3,362.2,434.2,362.8,433.8
	L362.8,433.8z M356.1,430.3c0.9-4.7,3.2-7.1,7.9-8.1c1.9-0.4,3.8-1,4.3-1.4c0.7-0.6,0.8-0.5,0.6,0.6c-0.1,0.9-0.5,1.3-1.5,1.4
	c-4.8,0.6-8.8,3.4-10.5,7.6C356,432.8,355.7,432.7,356.1,430.3z M392.5,420.7c0.2-1.2-0.1-3.2-0.5-4.6c-0.8-2.7-0.8-3.6,0.2-1.9
	c0.9,1.6,1.2,5.8,0.6,7.2C392.3,422.5,392.3,422.4,392.5,420.7L392.5,420.7z M371.3,417.5c0.6-0.4,1.3-0.7,1.6-0.7
	c0.4,0,1-0.4,1.4-0.8c0.4-0.4,0.8-0.6,0.8-0.3c0,0.7-0.8,1.2-3.1,2C370.5,418.2,370.4,418.2,371.3,417.5z M391.1,403
	c-0.9-1.1-1.6-2.2-1.3-2.2c0.1,0,0.7,0.7,1.3,1.5C392.3,404,392.3,404.5,391.1,403L391.1,403z M386.8,397.7c-0.5-0.6-0.7-1-0.4-1
	c0.3,0,0.8,0.5,1.1,1c0.3,0.6,0.5,1,0.4,1C387.8,398.8,387.3,398.3,386.8,397.7z M372.1,396.4c1.2-1.4,3.5-2.3,6-2.3
	c4.1,0.1,5.1,0.9,1.2,1c-2.2,0-4.2,0.4-5.6,1.1C371.9,397,371.6,397.1,372.1,396.4z M275.2,152.5c-1-0.5-3.4-2.4-5.4-4.1
	c-5-4.4-7.7-5.8-15.2-8.2c-7-2.2-11.8-3.1-18.6-3.6c-7.3-0.5-22.1-0.3-27.6,0.3c-2.8,0.3-6.4,0.7-7.9,0.9c-2.3,0.3-2.7,0.2-2.7-0.5
	c0-1.5,7.7-9,11.8-11.5c2.2-1.3,4.3-2.7,4.7-3.1c1.2-1,14.7-7.6,18.2-9c1.7-0.6,3.5-1.4,4.1-1.8c0.6-0.4,2.7-1.2,4.6-1.8
	c2-0.6,4.5-1.5,5.7-2c2.2-1,13.5-4.6,18.6-6c1.7-0.4,5.6-1.5,8.8-2.4c3.1-0.8,7.6-2,10-2.5c2.4-0.5,5.4-1.2,6.7-1.5
	c2.7-0.7,8.6-1.9,13.4-2.8c2.8-0.5,3.4-0.8,3.4-1.6c0.2-4.5,7.4-11.5,14.9-14.6c3.1-1.3,4.7-1.6,11.5-2.1c9.9-0.7,34.9-0.7,40.9,0
	c2.5,0.3,5.5,0.9,6.7,1.4c6,2.3,15.5,9,18.9,13.2c3.9,4.9,5.2,8.3,6,15.8l0.4,3.3l-2.9-2.7c-17.9-16.4-47.2-23-80.8-18.1
	c-4.9,0.7-5.7,1.1-4.5,2.3c0.7,0.7,1.2,0.8,3.6,0.2c4.1-0.9,21.4-1.3,28.3-0.6c17,1.8,31.7,6.7,44.2,15c5,3.3,12.1,8.8,11.7,9.1
	c-0.1,0.1-3.3-0.3-7.1-0.8c-22.5-3.3-41.9-2.5-56.5,2.4c-1.7,0.6-4.2,1.4-5.7,1.9c-3.8,1.3-14.2,6.4-19.3,9.6
	c-5.9,3.7-16.5,11.2-26.6,18.9c-4.6,3.5-9,6.7-9.9,7.1C280,153.7,277.5,153.6,275.2,152.5L275.2,152.5z M310,91.1
	c-0.2-0.3-0.5-0.4-0.8-0.2c-0.3,0.2-0.4,0.5-0.2,0.8c0.2,0.3,0.5,0.4,0.8,0.2C310.1,91.7,310.2,91.3,310,91.1z M312.9,90.9
	c0-0.4-0.5-0.8-1-0.8c-0.6,0-1,0.3-1,0.8c0,0.4,0.5,0.8,1,0.8C312.4,91.6,312.9,91.3,312.9,90.9z M314.6,90
	c-0.2-0.3-0.5-0.4-0.8-0.2c-0.3,0.2-0.4,0.5-0.2,0.8c0.2,0.3,0.5,0.4,0.8,0.2C314.7,90.7,314.8,90.3,314.6,90z M318,89.8
	c0-0.4-0.5-0.8-1-0.8c-0.6,0-1,0.3-1,0.8c0,0.4,0.5,0.8,1,0.8C317.6,90.6,318,90.3,318,89.8z"/>
</svg>
